<?xml version="1.0" encoding="UTF-8" standalone="no"?>
<!DOCTYPE svg PUBLIC "-//W3C//DTD SVG 1.1//EN"
 "http://www.w3.org/Graphics/SVG/1.1/DTD/svg11.dtd">
<!-- Generated by graphviz version 2.43.0 (0)
 -->
<!-- Title: PDFxTMD::CNearestPointExtrapolator&lt; Reader, Interpolator &gt; Pages: 1 -->
<svg width="1037pt" height="61pt"
 viewBox="0.00 0.00 1037.00 61.00" xmlns="http://www.w3.org/2000/svg" xmlns:xlink="http://www.w3.org/1999/xlink">
<g id="graph0" class="graph" transform="scale(1 1) rotate(0) translate(4 57)">
<title>PDFxTMD::CNearestPointExtrapolator&lt; Reader, Interpolator &gt;</title>
<!-- Node1 -->
<g id="node1" class="node">
<title>Node1</title>
<g id="a_node1"><a xlink:title=" ">
<polygon fill="#bfbfbf" stroke="black" points="829,-11.5 829,-41.5 1029,-41.5 1029,-11.5 829,-11.5"/>
<text text-anchor="start" x="837" y="-29.5" font-family="Helvetica,sans-Serif" font-size="10.00">PDFxTMD::CNearestPointExtrapolator</text>
<text text-anchor="middle" x="929" y="-18.5" font-family="Helvetica,sans-Serif" font-size="10.00">&lt; Reader, Interpolator &gt;</text>
</a>
</g>
</g>
<!-- Node2 -->
<g id="node2" class="node">
<title>Node2</title>
<g id="a_node2"><a xlink:href="classPDFxTMD_1_1IcAdvancedPDFExtrapolator.html" target="_top" xlink:title=" ">
<polygon fill="none" stroke="black" points="587,-0.5 587,-52.5 793,-52.5 793,-0.5 587,-0.5"/>
<text text-anchor="start" x="595" y="-40.5" font-family="Helvetica,sans-Serif" font-size="10.00">PDFxTMD::IcAdvancedPDFExtrapolator</text>
<text text-anchor="start" x="595" y="-29.5" font-family="Helvetica,sans-Serif" font-size="10.00">&lt; CNearestPointExtrapolator</text>
<text text-anchor="start" x="595" y="-18.5" font-family="Helvetica,sans-Serif" font-size="10.00">&lt; Reader, Interpolator &gt;, Reader,</text>
<text text-anchor="middle" x="690" y="-7.5" font-family="Helvetica,sans-Serif" font-size="10.00"> Interpolator &gt;</text>
</a>
</g>
</g>
<!-- Node2&#45;&gt;Node1 -->
<g id="edge1" class="edge">
<title>Node2&#45;&gt;Node1</title>
<path fill="none" stroke="midnightblue" d="M803.48,-26.5C811.92,-26.5 820.39,-26.5 828.74,-26.5"/>
<polygon fill="midnightblue" stroke="midnightblue" points="803.23,-23 793.23,-26.5 803.23,-30 803.23,-23"/>
</g>
<!-- Node3 -->
<g id="node3" class="node">
<title>Node3</title>
<g id="a_node3"><a xlink:href="classPDFxTMD_1_1IAdvancedExtrapolator.html" target="_top" xlink:title=" ">
<polygon fill="none" stroke="black" points="369,-6 369,-47 551,-47 551,-6 369,-6"/>
<text text-anchor="start" x="377" y="-35" font-family="Helvetica,sans-Serif" font-size="10.00">PDFxTMD::IAdvancedExtrapolator</text>
<text text-anchor="start" x="377" y="-24" font-family="Helvetica,sans-Serif" font-size="10.00">&lt; Derived, Reader, Interpolator,</text>
<text text-anchor="middle" x="460" y="-13" font-family="Helvetica,sans-Serif" font-size="10.00"> ExtrapolateArgs &gt;</text>
</a>
</g>
</g>
<!-- Node3&#45;&gt;Node2 -->
<g id="edge2" class="edge">
<title>Node3&#45;&gt;Node2</title>
<path fill="none" stroke="midnightblue" d="M561.33,-26.5C569.77,-26.5 578.3,-26.5 586.74,-26.5"/>
<polygon fill="midnightblue" stroke="midnightblue" points="561.11,-23 551.11,-26.5 561.11,-30 561.11,-23"/>
</g>
<!-- Node4 -->
<g id="node4" class="node">
<title>Node4</title>
<g id="a_node4"><a xlink:href="classPDFxTMD_1_1IExtrapolator.html" target="_top" xlink:title=" ">
<polygon fill="none" stroke="black" points="164,-6 164,-47 333,-47 333,-6 164,-6"/>
<text text-anchor="start" x="172" y="-35" font-family="Helvetica,sans-Serif" font-size="10.00">PDFxTMD::IExtrapolator</text>
<text text-anchor="start" x="172" y="-24" font-family="Helvetica,sans-Serif" font-size="10.00">&lt; Derived, Reader, Extrapolate</text>
<text text-anchor="middle" x="248.5" y="-13" font-family="Helvetica,sans-Serif" font-size="10.00">Args... &gt;</text>
</a>
</g>
</g>
<!-- Node4&#45;&gt;Node3 -->
<g id="edge3" class="edge">
<title>Node4&#45;&gt;Node3</title>
<path fill="none" stroke="midnightblue" d="M343.46,-26.5C351.92,-26.5 360.48,-26.5 368.9,-26.5"/>
<polygon fill="midnightblue" stroke="midnightblue" points="343.2,-23 333.2,-26.5 343.2,-30 343.2,-23"/>
</g>
<!-- Node5 -->
<g id="node5" class="node">
<title>Node5</title>
<g id="a_node5"><a xlink:href="classPDFxTMD_1_1CRTPBase.html" target="_top" xlink:title=" ">
<polygon fill="none" stroke="black" points="0,-11.5 0,-41.5 128,-41.5 128,-11.5 0,-11.5"/>
<text text-anchor="start" x="8" y="-29.5" font-family="Helvetica,sans-Serif" font-size="10.00">PDFxTMD::CRTPBase&lt;</text>
<text text-anchor="middle" x="64" y="-18.5" font-family="Helvetica,sans-Serif" font-size="10.00"> Derived &gt;</text>
</a>
</g>
</g>
<!-- Node5&#45;&gt;Node4 -->
<g id="edge4" class="edge">
<title>Node5&#45;&gt;Node4</title>
<path fill="none" stroke="midnightblue" d="M138.22,-26.5C146.64,-26.5 155.28,-26.5 163.84,-26.5"/>
<polygon fill="midnightblue" stroke="midnightblue" points="138.06,-23 128.06,-26.5 138.06,-30 138.06,-23"/>
</g>
</g>
</svg>
