<?xml version="1.0" encoding="UTF-8" standalone="no"?>
<!DOCTYPE svg PUBLIC "-//W3C//DTD SVG 1.1//EN"
 "http://www.w3.org/Graphics/SVG/1.1/DTD/svg11.dtd">
<!-- Generated by graphviz version 2.43.0 (0)
 -->
<!-- Title: PDFxTMD::CBilinearInterpolator Pages: 1 -->
<svg width="180pt" height="251pt"
 viewBox="0.00 0.00 180.00 251.00" xmlns="http://www.w3.org/2000/svg" xmlns:xlink="http://www.w3.org/1999/xlink">
<g id="graph0" class="graph" transform="scale(1 1) rotate(0) translate(4 247)">
<title>PDFxTMD::CBilinearInterpolator</title>
<!-- Node1 -->
<g id="node1" class="node">
<title>Node1</title>
<g id="a_node1"><a xlink:title=" ">
<polygon fill="#bfbfbf" stroke="black" points="0,-0.5 0,-19.5 172,-19.5 172,-0.5 0,-0.5"/>
<text text-anchor="middle" x="86" y="-7.5" font-family="Helvetica,sans-Serif" font-size="10.00">PDFxTMD::CBilinearInterpolator</text>
</a>
</g>
</g>
<!-- Node2 -->
<g id="node2" class="node">
<title>Node2</title>
<g id="a_node2"><a xlink:href="classPDFxTMD_1_1IcPDFInterpolator.html" target="_top" xlink:title=" ">
<polygon fill="none" stroke="black" points="4,-56.5 4,-97.5 168,-97.5 168,-56.5 4,-56.5"/>
<text text-anchor="start" x="12" y="-85.5" font-family="Helvetica,sans-Serif" font-size="10.00">PDFxTMD::IcPDFInterpolator</text>
<text text-anchor="start" x="12" y="-74.5" font-family="Helvetica,sans-Serif" font-size="10.00">&lt; CBilinearInterpolator,</text>
<text text-anchor="middle" x="86" y="-63.5" font-family="Helvetica,sans-Serif" font-size="10.00"> CDefaultLHAPDFFileReader &gt;</text>
</a>
</g>
</g>
<!-- Node2&#45;&gt;Node1 -->
<g id="edge1" class="edge">
<title>Node2&#45;&gt;Node1</title>
<path fill="none" stroke="midnightblue" d="M86,-46.26C86,-36.56 86,-26.52 86,-19.65"/>
<polygon fill="midnightblue" stroke="midnightblue" points="82.5,-46.5 86,-56.5 89.5,-46.5 82.5,-46.5"/>
</g>
<!-- Node3 -->
<g id="node3" class="node">
<title>Node3</title>
<g id="a_node3"><a xlink:href="classPDFxTMD_1_1IInterpolator.html" target="_top" xlink:title=" ">
<polygon fill="none" stroke="black" points="3,-134.5 3,-175.5 169,-175.5 169,-134.5 3,-134.5"/>
<text text-anchor="start" x="11" y="-163.5" font-family="Helvetica,sans-Serif" font-size="10.00">PDFxTMD::IInterpolator</text>
<text text-anchor="start" x="11" y="-152.5" font-family="Helvetica,sans-Serif" font-size="10.00">&lt; Derived, Reader, Interpolate</text>
<text text-anchor="middle" x="86" y="-141.5" font-family="Helvetica,sans-Serif" font-size="10.00">Args &gt;</text>
</a>
</g>
</g>
<!-- Node3&#45;&gt;Node2 -->
<g id="edge2" class="edge">
<title>Node3&#45;&gt;Node2</title>
<path fill="none" stroke="midnightblue" d="M86,-124.3C86,-115.3 86,-105.65 86,-97.51"/>
<polygon fill="midnightblue" stroke="midnightblue" points="82.5,-124.43 86,-134.43 89.5,-124.43 82.5,-124.43"/>
</g>
<!-- Node4 -->
<g id="node4" class="node">
<title>Node4</title>
<g id="a_node4"><a xlink:href="classPDFxTMD_1_1CRTPBase.html" target="_top" xlink:title=" ">
<polygon fill="none" stroke="black" points="22,-212.5 22,-242.5 150,-242.5 150,-212.5 22,-212.5"/>
<text text-anchor="start" x="30" y="-230.5" font-family="Helvetica,sans-Serif" font-size="10.00">PDFxTMD::CRTPBase&lt;</text>
<text text-anchor="middle" x="86" y="-219.5" font-family="Helvetica,sans-Serif" font-size="10.00"> Derived &gt;</text>
</a>
</g>
</g>
<!-- Node4&#45;&gt;Node3 -->
<g id="edge3" class="edge">
<title>Node4&#45;&gt;Node3</title>
<path fill="none" stroke="midnightblue" d="M86,-201.98C86,-193.35 86,-183.76 86,-175.59"/>
<polygon fill="midnightblue" stroke="midnightblue" points="82.5,-202.23 86,-212.23 89.5,-202.23 82.5,-202.23"/>
</g>
</g>
</svg>
