<?xml version="1.0" encoding="UTF-8" standalone="no"?>
<!DOCTYPE svg PUBLIC "-//W3C//DTD SVG 1.1//EN"
 "http://www.w3.org/Graphics/SVG/1.1/DTD/svg11.dtd">
<!-- Generated by graphviz version 2.43.0 (0)
 -->
<!-- Title: PDFxTMD::CGSLBicubicInterpolator Pages: 1 -->
<svg width="196pt" height="251pt"
 viewBox="0.00 0.00 196.00 251.00" xmlns="http://www.w3.org/2000/svg" xmlns:xlink="http://www.w3.org/1999/xlink">
<g id="graph0" class="graph" transform="scale(1 1) rotate(0) translate(4 247)">
<title>PDFxTMD::CGSLBicubicInterpolator</title>
<!-- Node1 -->
<g id="node1" class="node">
<title>Node1</title>
<g id="a_node1"><a xlink:title=" ">
<polygon fill="#bfbfbf" stroke="black" points="0,-0.5 0,-19.5 188,-19.5 188,-0.5 0,-0.5"/>
<text text-anchor="middle" x="94" y="-7.5" font-family="Helvetica,sans-Serif" font-size="10.00">PDFxTMD::CGSLBicubicInterpolator</text>
</a>
</g>
</g>
<!-- Node2 -->
<g id="node2" class="node">
<title>Node2</title>
<g id="a_node2"><a xlink:href="classPDFxTMD_1_1IcPDFInterpolator.html" target="_top" xlink:title=" ">
<polygon fill="none" stroke="black" points="12,-56.5 12,-97.5 176,-97.5 176,-56.5 12,-56.5"/>
<text text-anchor="start" x="20" y="-85.5" font-family="Helvetica,sans-Serif" font-size="10.00">PDFxTMD::IcPDFInterpolator</text>
<text text-anchor="start" x="20" y="-74.5" font-family="Helvetica,sans-Serif" font-size="10.00">&lt; CGSLBicubicInterpolator,</text>
<text text-anchor="middle" x="94" y="-63.5" font-family="Helvetica,sans-Serif" font-size="10.00"> CDefaultLHAPDFFileReader &gt;</text>
</a>
</g>
</g>
<!-- Node2&#45;&gt;Node1 -->
<g id="edge1" class="edge">
<title>Node2&#45;&gt;Node1</title>
<path fill="none" stroke="midnightblue" d="M94,-46.26C94,-36.56 94,-26.52 94,-19.65"/>
<polygon fill="midnightblue" stroke="midnightblue" points="90.5,-46.5 94,-56.5 97.5,-46.5 90.5,-46.5"/>
</g>
<!-- Node3 -->
<g id="node3" class="node">
<title>Node3</title>
<g id="a_node3"><a xlink:href="classPDFxTMD_1_1IInterpolator.html" target="_top" xlink:title=" ">
<polygon fill="none" stroke="black" points="11,-134.5 11,-175.5 177,-175.5 177,-134.5 11,-134.5"/>
<text text-anchor="start" x="19" y="-163.5" font-family="Helvetica,sans-Serif" font-size="10.00">PDFxTMD::IInterpolator</text>
<text text-anchor="start" x="19" y="-152.5" font-family="Helvetica,sans-Serif" font-size="10.00">&lt; Derived, Reader, Interpolate</text>
<text text-anchor="middle" x="94" y="-141.5" font-family="Helvetica,sans-Serif" font-size="10.00">Args &gt;</text>
</a>
</g>
</g>
<!-- Node3&#45;&gt;Node2 -->
<g id="edge2" class="edge">
<title>Node3&#45;&gt;Node2</title>
<path fill="none" stroke="midnightblue" d="M94,-124.3C94,-115.3 94,-105.65 94,-97.51"/>
<polygon fill="midnightblue" stroke="midnightblue" points="90.5,-124.43 94,-134.43 97.5,-124.43 90.5,-124.43"/>
</g>
<!-- Node4 -->
<g id="node4" class="node">
<title>Node4</title>
<g id="a_node4"><a xlink:href="classPDFxTMD_1_1CRTPBase.html" target="_top" xlink:title=" ">
<polygon fill="none" stroke="black" points="30,-212.5 30,-242.5 158,-242.5 158,-212.5 30,-212.5"/>
<text text-anchor="start" x="38" y="-230.5" font-family="Helvetica,sans-Serif" font-size="10.00">PDFxTMD::CRTPBase&lt;</text>
<text text-anchor="middle" x="94" y="-219.5" font-family="Helvetica,sans-Serif" font-size="10.00"> Derived &gt;</text>
</a>
</g>
</g>
<!-- Node4&#45;&gt;Node3 -->
<g id="edge3" class="edge">
<title>Node4&#45;&gt;Node3</title>
<path fill="none" stroke="midnightblue" d="M94,-201.98C94,-193.35 94,-183.76 94,-175.59"/>
<polygon fill="midnightblue" stroke="midnightblue" points="90.5,-202.23 94,-212.23 97.5,-202.23 90.5,-202.23"/>
</g>
</g>
</svg>
