<?xml version="1.0" encoding="UTF-8" standalone="no"?>
<!DOCTYPE svg PUBLIC "-//W3C//DTD SVG 1.1//EN"
 "http://www.w3.org/Graphics/SVG/1.1/DTD/svg11.dtd">
<!-- Generated by graphviz version 2.43.0 (0)
 -->
<!-- Title: PDFxTMD::IInterpolator&lt; Derived, Reader, InterpolateArgs &gt; Pages: 1 -->
<svg width="765pt" height="230pt"
 viewBox="0.00 0.00 765.00 230.00" xmlns="http://www.w3.org/2000/svg" xmlns:xlink="http://www.w3.org/1999/xlink">
<g id="graph0" class="graph" transform="scale(1 1) rotate(0) translate(4 226)">
<title>PDFxTMD::IInterpolator&lt; Derived, Reader, InterpolateArgs &gt;</title>
<!-- Node1 -->
<g id="node1" class="node">
<title>Node1</title>
<g id="a_node1"><a xlink:title=" ">
<polygon fill="#bfbfbf" stroke="black" points="164,-90.5 164,-131.5 330,-131.5 330,-90.5 164,-90.5"/>
<text text-anchor="start" x="172" y="-119.5" font-family="Helvetica,sans-Serif" font-size="10.00">PDFxTMD::IInterpolator</text>
<text text-anchor="start" x="172" y="-108.5" font-family="Helvetica,sans-Serif" font-size="10.00">&lt; Derived, Reader, Interpolate</text>
<text text-anchor="middle" x="247" y="-97.5" font-family="Helvetica,sans-Serif" font-size="10.00">Args &gt;</text>
</a>
</g>
</g>
<!-- Node3 -->
<g id="node3" class="node">
<title>Node3</title>
<g id="a_node3"><a xlink:href="classPDFxTMD_1_1ITMDInterpolator.html" target="_top" xlink:title=" ">
<polygon fill="none" stroke="black" points="371.5,-180.5 371.5,-221.5 524.5,-221.5 524.5,-180.5 371.5,-180.5"/>
<text text-anchor="start" x="379.5" y="-209.5" font-family="Helvetica,sans-Serif" font-size="10.00">PDFxTMD::ITMDInterpolator</text>
<text text-anchor="start" x="379.5" y="-198.5" font-family="Helvetica,sans-Serif" font-size="10.00">&lt; TTrilinearInterpolator,</text>
<text text-anchor="middle" x="448" y="-187.5" font-family="Helvetica,sans-Serif" font-size="10.00"> TDefaultAllFlavorReader &gt;</text>
</a>
</g>
</g>
<!-- Node1&#45;&gt;Node3 -->
<g id="edge2" class="edge">
<title>Node1&#45;&gt;Node3</title>
<path fill="none" stroke="midnightblue" d="M294.63,-136.28C316.09,-147.51 342.05,-160.52 366,-171 373.28,-174.19 381.02,-177.34 388.71,-180.34"/>
<polygon fill="midnightblue" stroke="midnightblue" points="296.2,-133.15 285.73,-131.59 292.94,-139.35 296.2,-133.15"/>
</g>
<!-- Node5 -->
<g id="node5" class="node">
<title>Node5</title>
<g id="a_node5"><a xlink:href="classPDFxTMD_1_1IcPDFInterpolator.html" target="_top" xlink:title=" ">
<polygon fill="none" stroke="black" points="366,-120.5 366,-161.5 530,-161.5 530,-120.5 366,-120.5"/>
<text text-anchor="start" x="374" y="-149.5" font-family="Helvetica,sans-Serif" font-size="10.00">PDFxTMD::IcPDFInterpolator</text>
<text text-anchor="start" x="374" y="-138.5" font-family="Helvetica,sans-Serif" font-size="10.00">&lt; CBilinearInterpolator,</text>
<text text-anchor="middle" x="448" y="-127.5" font-family="Helvetica,sans-Serif" font-size="10.00"> CDefaultLHAPDFFileReader &gt;</text>
</a>
</g>
</g>
<!-- Node1&#45;&gt;Node5 -->
<g id="edge4" class="edge">
<title>Node1&#45;&gt;Node5</title>
<path fill="none" stroke="midnightblue" d="M340.09,-124.88C348.65,-126.17 357.29,-127.48 365.74,-128.75"/>
<polygon fill="midnightblue" stroke="midnightblue" points="340.5,-121.41 330.09,-123.38 339.46,-128.33 340.5,-121.41"/>
</g>
<!-- Node7 -->
<g id="node7" class="node">
<title>Node7</title>
<g id="a_node7"><a xlink:href="classPDFxTMD_1_1IcPDFInterpolator.html" target="_top" xlink:title=" ">
<polygon fill="none" stroke="black" points="366,-60.5 366,-101.5 530,-101.5 530,-60.5 366,-60.5"/>
<text text-anchor="start" x="374" y="-89.5" font-family="Helvetica,sans-Serif" font-size="10.00">PDFxTMD::IcPDFInterpolator</text>
<text text-anchor="start" x="374" y="-78.5" font-family="Helvetica,sans-Serif" font-size="10.00">&lt; CGSLBilinearInterpolator,</text>
<text text-anchor="middle" x="448" y="-67.5" font-family="Helvetica,sans-Serif" font-size="10.00"> CDefaultLHAPDFFileReader &gt;</text>
</a>
</g>
</g>
<!-- Node1&#45;&gt;Node7 -->
<g id="edge6" class="edge">
<title>Node1&#45;&gt;Node7</title>
<path fill="none" stroke="midnightblue" d="M340.09,-97.12C348.65,-95.83 357.29,-94.52 365.74,-93.25"/>
<polygon fill="midnightblue" stroke="midnightblue" points="339.46,-93.67 330.09,-98.62 340.5,-100.59 339.46,-93.67"/>
</g>
<!-- Node9 -->
<g id="node9" class="node">
<title>Node9</title>
<g id="a_node9"><a xlink:href="classPDFxTMD_1_1IcPDFInterpolator.html" target="_top" xlink:title=" ">
<polygon fill="none" stroke="black" points="366,-0.5 366,-41.5 530,-41.5 530,-0.5 366,-0.5"/>
<text text-anchor="start" x="374" y="-29.5" font-family="Helvetica,sans-Serif" font-size="10.00">PDFxTMD::IcPDFInterpolator</text>
<text text-anchor="start" x="374" y="-18.5" font-family="Helvetica,sans-Serif" font-size="10.00">&lt; CGSLBicubicInterpolator,</text>
<text text-anchor="middle" x="448" y="-7.5" font-family="Helvetica,sans-Serif" font-size="10.00"> CDefaultLHAPDFFileReader &gt;</text>
</a>
</g>
</g>
<!-- Node1&#45;&gt;Node9 -->
<g id="edge8" class="edge">
<title>Node1&#45;&gt;Node9</title>
<path fill="none" stroke="midnightblue" d="M294.63,-85.72C316.09,-74.49 342.05,-61.48 366,-51 373.28,-47.81 381.02,-44.66 388.71,-41.66"/>
<polygon fill="midnightblue" stroke="midnightblue" points="292.94,-82.65 285.73,-90.41 296.2,-88.85 292.94,-82.65"/>
</g>
<!-- Node2 -->
<g id="node2" class="node">
<title>Node2</title>
<g id="a_node2"><a xlink:href="classPDFxTMD_1_1CRTPBase.html" target="_top" xlink:title=" ">
<polygon fill="none" stroke="black" points="0,-96 0,-126 128,-126 128,-96 0,-96"/>
<text text-anchor="start" x="8" y="-114" font-family="Helvetica,sans-Serif" font-size="10.00">PDFxTMD::CRTPBase&lt;</text>
<text text-anchor="middle" x="64" y="-103" font-family="Helvetica,sans-Serif" font-size="10.00"> Derived &gt;</text>
</a>
</g>
</g>
<!-- Node2&#45;&gt;Node1 -->
<g id="edge1" class="edge">
<title>Node2&#45;&gt;Node1</title>
<path fill="none" stroke="midnightblue" d="M138.19,-111C146.61,-111 155.23,-111 163.76,-111"/>
<polygon fill="midnightblue" stroke="midnightblue" points="138.05,-107.5 128.05,-111 138.05,-114.5 138.05,-107.5"/>
</g>
<!-- Node4 -->
<g id="node4" class="node">
<title>Node4</title>
<g id="a_node4"><a xlink:href="classPDFxTMD_1_1TTrilinearInterpolator.html" target="_top" xlink:title=" ">
<polygon fill="none" stroke="black" points="575,-191.5 575,-210.5 748,-210.5 748,-191.5 575,-191.5"/>
<text text-anchor="middle" x="661.5" y="-198.5" font-family="Helvetica,sans-Serif" font-size="10.00">PDFxTMD::TTrilinearInterpolator</text>
</a>
</g>
</g>
<!-- Node3&#45;&gt;Node4 -->
<g id="edge3" class="edge">
<title>Node3&#45;&gt;Node4</title>
<path fill="none" stroke="midnightblue" d="M534.77,-201C547.98,-201 561.63,-201 574.85,-201"/>
<polygon fill="midnightblue" stroke="midnightblue" points="534.76,-197.5 524.76,-201 534.76,-204.5 534.76,-197.5"/>
</g>
<!-- Node6 -->
<g id="node6" class="node">
<title>Node6</title>
<g id="a_node6"><a xlink:href="classPDFxTMD_1_1CBilinearInterpolator.html" target="_top" xlink:title=" ">
<polygon fill="none" stroke="black" points="575.5,-131.5 575.5,-150.5 747.5,-150.5 747.5,-131.5 575.5,-131.5"/>
<text text-anchor="middle" x="661.5" y="-138.5" font-family="Helvetica,sans-Serif" font-size="10.00">PDFxTMD::CBilinearInterpolator</text>
</a>
</g>
</g>
<!-- Node5&#45;&gt;Node6 -->
<g id="edge5" class="edge">
<title>Node5&#45;&gt;Node6</title>
<path fill="none" stroke="midnightblue" d="M540.31,-141C551.94,-141 563.81,-141 575.34,-141"/>
<polygon fill="midnightblue" stroke="midnightblue" points="540.17,-137.5 530.17,-141 540.17,-144.5 540.17,-137.5"/>
</g>
<!-- Node8 -->
<g id="node8" class="node">
<title>Node8</title>
<g id="a_node8"><a xlink:href="classPDFxTMD_1_1CGSLBilinearInterpolator.html" target="_top" xlink:title=" ">
<polygon fill="none" stroke="black" points="566,-71.5 566,-90.5 757,-90.5 757,-71.5 566,-71.5"/>
<text text-anchor="middle" x="661.5" y="-78.5" font-family="Helvetica,sans-Serif" font-size="10.00">PDFxTMD::CGSLBilinearInterpolator</text>
</a>
</g>
</g>
<!-- Node7&#45;&gt;Node8 -->
<g id="edge7" class="edge">
<title>Node7&#45;&gt;Node8</title>
<path fill="none" stroke="midnightblue" d="M540.36,-81C548.78,-81 557.32,-81 565.77,-81"/>
<polygon fill="midnightblue" stroke="midnightblue" points="540.17,-77.5 530.17,-81 540.17,-84.5 540.17,-77.5"/>
</g>
<!-- Node10 -->
<g id="node10" class="node">
<title>Node10</title>
<g id="a_node10"><a xlink:href="classPDFxTMD_1_1CGSLBicubicInterpolator.html" target="_top" xlink:title=" ">
<polygon fill="none" stroke="black" points="567.5,-11.5 567.5,-30.5 755.5,-30.5 755.5,-11.5 567.5,-11.5"/>
<text text-anchor="middle" x="661.5" y="-18.5" font-family="Helvetica,sans-Serif" font-size="10.00">PDFxTMD::CGSLBicubicInterpolator</text>
</a>
</g>
</g>
<!-- Node9&#45;&gt;Node10 -->
<g id="edge9" class="edge">
<title>Node9&#45;&gt;Node10</title>
<path fill="none" stroke="midnightblue" d="M540.19,-21C549.14,-21 558.23,-21 567.19,-21"/>
<polygon fill="midnightblue" stroke="midnightblue" points="540.17,-17.5 530.17,-21 540.17,-24.5 540.17,-17.5"/>
</g>
</g>
</svg>
