<?xml version="1.0" encoding="UTF-8" standalone="no"?>
<!DOCTYPE svg PUBLIC "-//W3C//DTD SVG 1.1//EN"
 "http://www.w3.org/Graphics/SVG/1.1/DTD/svg11.dtd">
<!-- Generated by graphviz version 2.43.0 (0)
 -->
<!-- Title: PDFxTMD::CRTPBase&lt; Derived &gt; Pages: 1 -->
<svg width="1048pt" height="886pt"
 viewBox="0.00 0.00 1048.00 885.50" xmlns="http://www.w3.org/2000/svg" xmlns:xlink="http://www.w3.org/1999/xlink">
<g id="graph0" class="graph" transform="scale(1 1) rotate(0) translate(4 881.5)">
<title>PDFxTMD::CRTPBase&lt; Derived &gt;</title>
<!-- Node1 -->
<g id="node1" class="node">
<title>Node1</title>
<g id="a_node1"><a xlink:title=" ">
<polygon fill="#bfbfbf" stroke="black" points="0,-483 0,-513 128,-513 128,-483 0,-483"/>
<text text-anchor="start" x="8" y="-501" font-family="Helvetica,sans-Serif" font-size="10.00">PDFxTMD::CRTPBase&lt;</text>
<text text-anchor="middle" x="64" y="-490" font-family="Helvetica,sans-Serif" font-size="10.00"> Derived &gt;</text>
</a>
</g>
</g>
<!-- Node2 -->
<g id="node2" class="node">
<title>Node2</title>
<g id="a_node2"><a xlink:href="classPDFxTMD_1_1IExtrapolator.html" target="_top" xlink:title=" ">
<polygon fill="none" stroke="black" points="164,-830.5 164,-871.5 341,-871.5 341,-830.5 164,-830.5"/>
<text text-anchor="start" x="172" y="-859.5" font-family="Helvetica,sans-Serif" font-size="10.00">PDFxTMD::IExtrapolator</text>
<text text-anchor="start" x="172" y="-848.5" font-family="Helvetica,sans-Serif" font-size="10.00">&lt; Derived, Reader, PartonFlavor,</text>
<text text-anchor="middle" x="252.5" y="-837.5" font-family="Helvetica,sans-Serif" font-size="10.00"> X_T, MU_T &gt;</text>
</a>
</g>
</g>
<!-- Node1&#45;&gt;Node2 -->
<g id="edge1" class="edge">
<title>Node1&#45;&gt;Node2</title>
<path fill="none" stroke="midnightblue" d="M66.31,-523.09C70.6,-580.7 88.67,-724.1 164,-810 171.19,-818.2 180.37,-824.88 190.06,-830.28"/>
<polygon fill="midnightblue" stroke="midnightblue" points="69.8,-522.8 65.65,-513.06 62.82,-523.27 69.8,-522.8"/>
</g>
<!-- Node4 -->
<g id="node4" class="node">
<title>Node4</title>
<g id="a_node4"><a xlink:href="classPDFxTMD_1_1IExtrapolator.html" target="_top" xlink:title=" ">
<polygon fill="none" stroke="black" points="164,-759.5 164,-800.5 341,-800.5 341,-759.5 164,-759.5"/>
<text text-anchor="start" x="172" y="-788.5" font-family="Helvetica,sans-Serif" font-size="10.00">PDFxTMD::IExtrapolator</text>
<text text-anchor="start" x="172" y="-777.5" font-family="Helvetica,sans-Serif" font-size="10.00">&lt; Derived, Reader, PartonFlavor,</text>
<text text-anchor="middle" x="252.5" y="-766.5" font-family="Helvetica,sans-Serif" font-size="10.00"> X_T, KT_T, MU_T &gt;</text>
</a>
</g>
</g>
<!-- Node1&#45;&gt;Node4 -->
<g id="edge3" class="edge">
<title>Node1&#45;&gt;Node4</title>
<path fill="none" stroke="midnightblue" d="M70.36,-523.09C81.16,-568.58 109.3,-665.7 164,-728 175.19,-740.75 190.3,-751.25 204.8,-759.39"/>
<polygon fill="midnightblue" stroke="midnightblue" points="73.74,-522.16 68.09,-513.19 66.91,-523.72 73.74,-522.16"/>
</g>
<!-- Node6 -->
<g id="node6" class="node">
<title>Node6</title>
<g id="a_node6"><a xlink:href="classPDFxTMD_1_1IExtrapolator.html" target="_top" xlink:title=" ">
<polygon fill="none" stroke="black" points="168,-677.5 168,-718.5 337,-718.5 337,-677.5 168,-677.5"/>
<text text-anchor="start" x="176" y="-706.5" font-family="Helvetica,sans-Serif" font-size="10.00">PDFxTMD::IExtrapolator</text>
<text text-anchor="start" x="176" y="-695.5" font-family="Helvetica,sans-Serif" font-size="10.00">&lt; Derived, Reader, Extrapolate</text>
<text text-anchor="middle" x="252.5" y="-684.5" font-family="Helvetica,sans-Serif" font-size="10.00">Args... &gt;</text>
</a>
</g>
</g>
<!-- Node1&#45;&gt;Node6 -->
<g id="edge5" class="edge">
<title>Node1&#45;&gt;Node6</title>
<path fill="none" stroke="midnightblue" d="M73.01,-522.58C86.21,-559.37 115.96,-628.6 164,-668 168.35,-671.56 173.14,-674.71 178.18,-677.5"/>
<polygon fill="midnightblue" stroke="midnightblue" points="76.31,-521.42 69.72,-513.12 69.7,-523.72 76.31,-521.42"/>
</g>
<!-- Node16 -->
<g id="node16" class="node">
<title>Node16</title>
<g id="a_node16"><a xlink:href="classPDFxTMD_1_1IInterpolator.html" target="_top" xlink:title=" ">
<polygon fill="none" stroke="black" points="164,-617.5 164,-658.5 341,-658.5 341,-617.5 164,-617.5"/>
<text text-anchor="start" x="172" y="-646.5" font-family="Helvetica,sans-Serif" font-size="10.00">PDFxTMD::IInterpolator</text>
<text text-anchor="start" x="172" y="-635.5" font-family="Helvetica,sans-Serif" font-size="10.00">&lt; Derived, Reader, PartonFlavor,</text>
<text text-anchor="middle" x="252.5" y="-624.5" font-family="Helvetica,sans-Serif" font-size="10.00"> X_T, MU_T &gt;</text>
</a>
</g>
</g>
<!-- Node1&#45;&gt;Node16 -->
<g id="edge15" class="edge">
<title>Node1&#45;&gt;Node16</title>
<path fill="none" stroke="midnightblue" d="M80.59,-521.46C98.15,-546.21 128.88,-584.78 164,-608 169.22,-611.45 174.89,-614.55 180.74,-617.32"/>
<polygon fill="midnightblue" stroke="midnightblue" points="83.31,-519.24 74.73,-513.02 77.56,-523.23 83.31,-519.24"/>
</g>
<!-- Node18 -->
<g id="node18" class="node">
<title>Node18</title>
<g id="a_node18"><a xlink:href="classPDFxTMD_1_1IInterpolator.html" target="_top" xlink:title=" ">
<polygon fill="none" stroke="black" points="164,-557.5 164,-598.5 341,-598.5 341,-557.5 164,-557.5"/>
<text text-anchor="start" x="172" y="-586.5" font-family="Helvetica,sans-Serif" font-size="10.00">PDFxTMD::IInterpolator</text>
<text text-anchor="start" x="172" y="-575.5" font-family="Helvetica,sans-Serif" font-size="10.00">&lt; Derived, Reader, PartonFlavor,</text>
<text text-anchor="middle" x="252.5" y="-564.5" font-family="Helvetica,sans-Serif" font-size="10.00"> X_T, KT_T, MU_T &gt;</text>
</a>
</g>
</g>
<!-- Node1&#45;&gt;Node18 -->
<g id="edge17" class="edge">
<title>Node1&#45;&gt;Node18</title>
<path fill="none" stroke="midnightblue" d="M101.22,-517.8C119.72,-527.52 142.75,-539.04 164,-548 171.69,-551.24 179.87,-554.41 188.02,-557.39"/>
<polygon fill="midnightblue" stroke="midnightblue" points="102.73,-514.64 92.26,-513.04 99.45,-520.82 102.73,-514.64"/>
</g>
<!-- Node20 -->
<g id="node20" class="node">
<title>Node20</title>
<g id="a_node20"><a xlink:href="classPDFxTMD_1_1IReader.html" target="_top" xlink:title=" ">
<polygon fill="none" stroke="black" points="169,-508 169,-538 336,-538 336,-508 169,-508"/>
<text text-anchor="start" x="177" y="-526" font-family="Helvetica,sans-Serif" font-size="10.00">PDFxTMD::IReader&lt; PDFxTMD</text>
<text text-anchor="middle" x="252.5" y="-515" font-family="Helvetica,sans-Serif" font-size="10.00">::TDefaultAllFlavorReader &gt;</text>
</a>
</g>
</g>
<!-- Node1&#45;&gt;Node20 -->
<g id="edge19" class="edge">
<title>Node1&#45;&gt;Node20</title>
<path fill="none" stroke="midnightblue" d="M138.12,-507.8C148.22,-509.16 158.66,-510.55 168.92,-511.93"/>
<polygon fill="midnightblue" stroke="midnightblue" points="138.52,-504.32 128.14,-506.46 137.59,-511.26 138.52,-504.32"/>
</g>
<!-- Node21 -->
<g id="node21" class="node">
<title>Node21</title>
<g id="a_node21"><a xlink:href="classPDFxTMD_1_1IReader.html" target="_top" xlink:title=" ">
<polygon fill="none" stroke="black" points="171.5,-459 171.5,-489 333.5,-489 333.5,-459 171.5,-459"/>
<text text-anchor="start" x="179.5" y="-477" font-family="Helvetica,sans-Serif" font-size="10.00">PDFxTMD::IReader&lt; CDefault</text>
<text text-anchor="middle" x="252.5" y="-466" font-family="Helvetica,sans-Serif" font-size="10.00">LHAPDFFileReader &gt;</text>
</a>
</g>
</g>
<!-- Node1&#45;&gt;Node21 -->
<g id="edge20" class="edge">
<title>Node1&#45;&gt;Node21</title>
<path fill="none" stroke="midnightblue" d="M138.35,-488.56C149.14,-487.17 160.31,-485.73 171.23,-484.33"/>
<polygon fill="midnightblue" stroke="midnightblue" points="137.61,-485.13 128.14,-489.87 138.51,-492.07 137.61,-485.13"/>
</g>
<!-- Node23 -->
<g id="node23" class="node">
<title>Node23</title>
<g id="a_node23"><a xlink:href="classPDFxTMD_1_1IReader.html" target="_top" xlink:title=" ">
<polygon fill="none" stroke="black" points="169,-410 169,-440 336,-440 336,-410 169,-410"/>
<text text-anchor="start" x="177" y="-428" font-family="Helvetica,sans-Serif" font-size="10.00">PDFxTMD::IReader&lt; PDFxTMD</text>
<text text-anchor="middle" x="252.5" y="-417" font-family="Helvetica,sans-Serif" font-size="10.00">::CDefaultLHAPDFFileReader &gt;</text>
</a>
</g>
</g>
<!-- Node1&#45;&gt;Node23 -->
<g id="edge22" class="edge">
<title>Node1&#45;&gt;Node23</title>
<path fill="none" stroke="midnightblue" d="M101.91,-478.22C120.24,-468.88 142.93,-458.05 164,-450 173.45,-446.39 183.64,-443.03 193.61,-440.01"/>
<polygon fill="midnightblue" stroke="midnightblue" points="100.3,-475.11 93.02,-482.8 103.51,-481.33 100.3,-475.11"/>
</g>
<!-- Node24 -->
<g id="node24" class="node">
<title>Node24</title>
<g id="a_node24"><a xlink:href="classPDFxTMD_1_1IReader.html" target="_top" xlink:title=" ">
<polygon fill="none" stroke="black" points="172,-361 172,-391 333,-391 333,-361 172,-361"/>
<text text-anchor="start" x="180" y="-379" font-family="Helvetica,sans-Serif" font-size="10.00">PDFxTMD::IReader&lt; TDefault</text>
<text text-anchor="middle" x="252.5" y="-368" font-family="Helvetica,sans-Serif" font-size="10.00">AllFlavorReader &gt;</text>
</a>
</g>
</g>
<!-- Node1&#45;&gt;Node24 -->
<g id="edge23" class="edge">
<title>Node1&#45;&gt;Node24</title>
<path fill="none" stroke="midnightblue" d="M82.72,-474.94C100.85,-452.88 130.98,-420.2 164,-401 170.56,-397.19 177.73,-393.93 185.06,-391.14"/>
<polygon fill="midnightblue" stroke="midnightblue" points="79.92,-472.84 76.38,-482.83 85.37,-477.23 79.92,-472.84"/>
</g>
<!-- Node26 -->
<g id="node26" class="node">
<title>Node26</title>
<g id="a_node26"><a xlink:href="classPDFxTMD_1_1IExtrapolator.html" target="_top" xlink:title=" ">
<polygon fill="none" stroke="black" points="168,-300.5 168,-341.5 337,-341.5 337,-300.5 168,-300.5"/>
<text text-anchor="start" x="176" y="-329.5" font-family="Helvetica,sans-Serif" font-size="10.00">PDFxTMD::IExtrapolator</text>
<text text-anchor="start" x="176" y="-318.5" font-family="Helvetica,sans-Serif" font-size="10.00">&lt; Derived, Reader, Extrapolate</text>
<text text-anchor="middle" x="252.5" y="-307.5" font-family="Helvetica,sans-Serif" font-size="10.00">Args &gt;</text>
</a>
</g>
</g>
<!-- Node1&#45;&gt;Node26 -->
<g id="edge25" class="edge">
<title>Node1&#45;&gt;Node26</title>
<path fill="none" stroke="midnightblue" d="M75.51,-473.69C90.61,-441.48 121.39,-384.91 164,-352 169.1,-348.06 174.75,-344.59 180.64,-341.55"/>
<polygon fill="midnightblue" stroke="midnightblue" points="72.3,-472.3 71.33,-482.85 78.67,-475.2 72.3,-472.3"/>
</g>
<!-- Node33 -->
<g id="node33" class="node">
<title>Node33</title>
<g id="a_node33"><a xlink:href="classPDFxTMD_1_1IInterpolator.html" target="_top" xlink:title=" ">
<polygon fill="none" stroke="black" points="169.5,-150.5 169.5,-191.5 335.5,-191.5 335.5,-150.5 169.5,-150.5"/>
<text text-anchor="start" x="177.5" y="-179.5" font-family="Helvetica,sans-Serif" font-size="10.00">PDFxTMD::IInterpolator</text>
<text text-anchor="start" x="177.5" y="-168.5" font-family="Helvetica,sans-Serif" font-size="10.00">&lt; Derived, Reader, Interpolate</text>
<text text-anchor="middle" x="252.5" y="-157.5" font-family="Helvetica,sans-Serif" font-size="10.00">Args &gt;</text>
</a>
</g>
</g>
<!-- Node1&#45;&gt;Node33 -->
<g id="edge32" class="edge">
<title>Node1&#45;&gt;Node33</title>
<path fill="none" stroke="midnightblue" d="M74.93,-473.61C91.39,-434.12 126.25,-354.25 164,-291 185.8,-254.47 215.85,-215.18 234.46,-191.86"/>
<polygon fill="midnightblue" stroke="midnightblue" points="71.65,-472.38 71.06,-482.96 78.12,-475.06 71.65,-472.38"/>
</g>
<!-- Node42 -->
<g id="node42" class="node">
<title>Node42</title>
<g id="a_node42"><a xlink:href="classPDFxTMD_1_1IReader.html" target="_top" xlink:title=" ">
<polygon fill="none" stroke="black" points="168,-112.5 168,-131.5 337,-131.5 337,-112.5 168,-112.5"/>
<text text-anchor="middle" x="252.5" y="-119.5" font-family="Helvetica,sans-Serif" font-size="10.00">PDFxTMD::IReader&lt; Derived &gt;</text>
</a>
</g>
</g>
<!-- Node1&#45;&gt;Node42 -->
<g id="edge41" class="edge">
<title>Node1&#45;&gt;Node42</title>
<path fill="none" stroke="midnightblue" d="M68.58,-472.78C79.51,-399.27 114.75,-187.53 164,-141 167.95,-137.26 172.46,-134.19 177.3,-131.68"/>
<polygon fill="midnightblue" stroke="midnightblue" points="65.07,-472.56 67.09,-482.96 72,-473.57 65.07,-472.56"/>
</g>
<!-- Node3 -->
<g id="node3" class="node">
<title>Node3</title>
<g id="a_node3"><a xlink:href="classPDFxTMD_1_1IcPDFExtrapolator.html" target="_top" xlink:title=" ">
<polygon fill="none" stroke="black" points="389,-847 389,-877 547,-877 547,-847 389,-847"/>
<text text-anchor="start" x="397" y="-865" font-family="Helvetica,sans-Serif" font-size="10.00">PDFxTMD::IcPDFExtrapolator</text>
<text text-anchor="middle" x="468" y="-854" font-family="Helvetica,sans-Serif" font-size="10.00">&lt; Derived, Reader &gt;</text>
</a>
</g>
</g>
<!-- Node2&#45;&gt;Node3 -->
<g id="edge2" class="edge">
<title>Node2&#45;&gt;Node3</title>
<path fill="none" stroke="midnightblue" d="M351.3,-856.04C363.87,-856.69 376.61,-857.34 388.81,-857.97"/>
<polygon fill="midnightblue" stroke="midnightblue" points="351.43,-852.54 341.26,-855.52 351.07,-859.53 351.43,-852.54"/>
</g>
<!-- Node5 -->
<g id="node5" class="node">
<title>Node5</title>
<g id="a_node5"><a xlink:href="classPDFxTMD_1_1ITMDExtrapolator.html" target="_top" xlink:title=" ">
<polygon fill="none" stroke="black" points="390,-798 390,-828 546,-828 546,-798 390,-798"/>
<text text-anchor="start" x="398" y="-816" font-family="Helvetica,sans-Serif" font-size="10.00">PDFxTMD::ITMDExtrapolator</text>
<text text-anchor="middle" x="468" y="-805" font-family="Helvetica,sans-Serif" font-size="10.00">&lt; Derived, Reader &gt;</text>
</a>
</g>
</g>
<!-- Node4&#45;&gt;Node5 -->
<g id="edge4" class="edge">
<title>Node4&#45;&gt;Node5</title>
<path fill="none" stroke="midnightblue" d="M351.52,-795.15C364.37,-797.14 377.39,-799.15 389.82,-801.07"/>
<polygon fill="midnightblue" stroke="midnightblue" points="351.68,-791.63 341.26,-793.57 350.61,-798.55 351.68,-791.63"/>
</g>
<!-- Node7 -->
<g id="node7" class="node">
<title>Node7</title>
<g id="a_node7"><a xlink:href="classPDFxTMD_1_1IAdvancedExtrapolator.html" target="_top" xlink:title=" ">
<polygon fill="none" stroke="black" points="377,-737.5 377,-778.5 559,-778.5 559,-737.5 377,-737.5"/>
<text text-anchor="start" x="385" y="-766.5" font-family="Helvetica,sans-Serif" font-size="10.00">PDFxTMD::IAdvancedExtrapolator</text>
<text text-anchor="start" x="385" y="-755.5" font-family="Helvetica,sans-Serif" font-size="10.00">&lt; Derived, Reader, Interpolator,</text>
<text text-anchor="middle" x="468" y="-744.5" font-family="Helvetica,sans-Serif" font-size="10.00"> PartonFlavor, X_T, MU_T &gt;</text>
</a>
</g>
</g>
<!-- Node6&#45;&gt;Node7 -->
<g id="edge6" class="edge">
<title>Node6&#45;&gt;Node7</title>
<path fill="none" stroke="midnightblue" d="M336.47,-721.32C355.42,-726.64 375.42,-732.26 393.92,-737.46"/>
<polygon fill="midnightblue" stroke="midnightblue" points="337.25,-717.9 326.68,-718.56 335.36,-724.64 337.25,-717.9"/>
</g>
<!-- Node9 -->
<g id="node9" class="node">
<title>Node9</title>
<g id="a_node9"><a xlink:href="classPDFxTMD_1_1IAdvancedExtrapolator.html" target="_top" xlink:title=" ">
<polygon fill="none" stroke="black" points="377,-677.5 377,-718.5 559,-718.5 559,-677.5 377,-677.5"/>
<text text-anchor="start" x="385" y="-706.5" font-family="Helvetica,sans-Serif" font-size="10.00">PDFxTMD::IAdvancedExtrapolator</text>
<text text-anchor="start" x="385" y="-695.5" font-family="Helvetica,sans-Serif" font-size="10.00">&lt; Derived, Reader, Interpolator,</text>
<text text-anchor="middle" x="468" y="-684.5" font-family="Helvetica,sans-Serif" font-size="10.00"> PartonFlavor, X_T, KT_T, MU_T &gt;</text>
</a>
</g>
</g>
<!-- Node6&#45;&gt;Node9 -->
<g id="edge8" class="edge">
<title>Node6&#45;&gt;Node9</title>
<path fill="none" stroke="midnightblue" d="M347.38,-698C357.14,-698 367.06,-698 376.78,-698"/>
<polygon fill="midnightblue" stroke="midnightblue" points="347.27,-694.5 337.27,-698 347.27,-701.5 347.27,-694.5"/>
</g>
<!-- Node11 -->
<g id="node11" class="node">
<title>Node11</title>
<g id="a_node11"><a xlink:href="classPDFxTMD_1_1IAdvancedExtrapolator.html" target="_top" xlink:title=" ">
<polygon fill="none" stroke="black" points="377,-617.5 377,-658.5 559,-658.5 559,-617.5 377,-617.5"/>
<text text-anchor="start" x="385" y="-646.5" font-family="Helvetica,sans-Serif" font-size="10.00">PDFxTMD::IAdvancedExtrapolator</text>
<text text-anchor="start" x="385" y="-635.5" font-family="Helvetica,sans-Serif" font-size="10.00">&lt; Derived, Reader, Interpolator,</text>
<text text-anchor="middle" x="468" y="-624.5" font-family="Helvetica,sans-Serif" font-size="10.00"> ExtrapolateArgs &gt;</text>
</a>
</g>
</g>
<!-- Node6&#45;&gt;Node11 -->
<g id="edge10" class="edge">
<title>Node6&#45;&gt;Node11</title>
<path fill="none" stroke="midnightblue" d="M336.47,-674.68C355.42,-669.36 375.42,-663.74 393.92,-658.54"/>
<polygon fill="midnightblue" stroke="midnightblue" points="335.36,-671.36 326.68,-677.44 337.25,-678.1 335.36,-671.36"/>
</g>
<!-- Node8 -->
<g id="node8" class="node">
<title>Node8</title>
<g id="a_node8"><a xlink:href="classPDFxTMD_1_1IcAdvancedPDFExtrapolator.html" target="_top" xlink:title=" ">
<polygon fill="none" stroke="black" points="596.5,-743 596.5,-773 802.5,-773 802.5,-743 596.5,-743"/>
<text text-anchor="start" x="604.5" y="-761" font-family="Helvetica,sans-Serif" font-size="10.00">PDFxTMD::IcAdvancedPDFExtrapolator</text>
<text text-anchor="middle" x="699.5" y="-750" font-family="Helvetica,sans-Serif" font-size="10.00">&lt; Derived, Reader, Interpolator &gt;</text>
</a>
</g>
</g>
<!-- Node7&#45;&gt;Node8 -->
<g id="edge7" class="edge">
<title>Node7&#45;&gt;Node8</title>
<path fill="none" stroke="midnightblue" d="M569.11,-758C578.09,-758 587.18,-758 596.17,-758"/>
<polygon fill="midnightblue" stroke="midnightblue" points="569.05,-754.5 559.05,-758 569.05,-761.5 569.05,-754.5"/>
</g>
<!-- Node10 -->
<g id="node10" class="node">
<title>Node10</title>
<g id="a_node10"><a xlink:href="classPDFxTMD_1_1IcAdvancedTMDExtrapolator.html" target="_top" xlink:title=" ">
<polygon fill="none" stroke="black" points="595,-683 595,-713 804,-713 804,-683 595,-683"/>
<text text-anchor="start" x="603" y="-701" font-family="Helvetica,sans-Serif" font-size="10.00">PDFxTMD::IcAdvancedTMDExtrapolator</text>
<text text-anchor="middle" x="699.5" y="-690" font-family="Helvetica,sans-Serif" font-size="10.00">&lt; Derived, Reader, Interpolator &gt;</text>
</a>
</g>
</g>
<!-- Node9&#45;&gt;Node10 -->
<g id="edge9" class="edge">
<title>Node9&#45;&gt;Node10</title>
<path fill="none" stroke="midnightblue" d="M569.25,-698C577.67,-698 586.2,-698 594.64,-698"/>
<polygon fill="midnightblue" stroke="midnightblue" points="569.05,-694.5 559.05,-698 569.05,-701.5 569.05,-694.5"/>
</g>
<!-- Node12 -->
<g id="node12" class="node">
<title>Node12</title>
<g id="a_node12"><a xlink:href="classPDFxTMD_1_1IcAdvancedPDFExtrapolator.html" target="_top" xlink:title=" ">
<polygon fill="none" stroke="black" points="596.5,-612 596.5,-664 802.5,-664 802.5,-612 596.5,-612"/>
<text text-anchor="start" x="604.5" y="-652" font-family="Helvetica,sans-Serif" font-size="10.00">PDFxTMD::IcAdvancedPDFExtrapolator</text>
<text text-anchor="start" x="604.5" y="-641" font-family="Helvetica,sans-Serif" font-size="10.00">&lt; CContinuationExtrapolator</text>
<text text-anchor="start" x="604.5" y="-630" font-family="Helvetica,sans-Serif" font-size="10.00">&lt; Reader, Interpolator &gt;, Reader,</text>
<text text-anchor="middle" x="699.5" y="-619" font-family="Helvetica,sans-Serif" font-size="10.00"> Interpolator &gt;</text>
</a>
</g>
</g>
<!-- Node11&#45;&gt;Node12 -->
<g id="edge11" class="edge">
<title>Node11&#45;&gt;Node12</title>
<path fill="none" stroke="midnightblue" d="M569.11,-638C578.09,-638 587.18,-638 596.17,-638"/>
<polygon fill="midnightblue" stroke="midnightblue" points="569.05,-634.5 559.05,-638 569.05,-641.5 569.05,-634.5"/>
</g>
<!-- Node14 -->
<g id="node14" class="node">
<title>Node14</title>
<g id="a_node14"><a xlink:href="classPDFxTMD_1_1IcAdvancedPDFExtrapolator.html" target="_top" xlink:title=" ">
<polygon fill="none" stroke="black" points="596.5,-541 596.5,-593 802.5,-593 802.5,-541 596.5,-541"/>
<text text-anchor="start" x="604.5" y="-581" font-family="Helvetica,sans-Serif" font-size="10.00">PDFxTMD::IcAdvancedPDFExtrapolator</text>
<text text-anchor="start" x="604.5" y="-570" font-family="Helvetica,sans-Serif" font-size="10.00">&lt; CNearestPointExtrapolator</text>
<text text-anchor="start" x="604.5" y="-559" font-family="Helvetica,sans-Serif" font-size="10.00">&lt; Reader, Interpolator &gt;, Reader,</text>
<text text-anchor="middle" x="699.5" y="-548" font-family="Helvetica,sans-Serif" font-size="10.00"> Interpolator &gt;</text>
</a>
</g>
</g>
<!-- Node11&#45;&gt;Node14 -->
<g id="edge13" class="edge">
<title>Node11&#45;&gt;Node14</title>
<path fill="none" stroke="midnightblue" d="M545.07,-614.47C567.25,-607.6 591.62,-600.07 614.27,-593.06"/>
<polygon fill="midnightblue" stroke="midnightblue" points="543.9,-611.16 535.38,-617.46 545.97,-617.85 543.9,-611.16"/>
</g>
<!-- Node13 -->
<g id="node13" class="node">
<title>Node13</title>
<g id="a_node13"><a xlink:href="classPDFxTMD_1_1CContinuationExtrapolator.html" target="_top" xlink:title=" ">
<polygon fill="none" stroke="black" points="840,-623 840,-653 1040,-653 1040,-623 840,-623"/>
<text text-anchor="start" x="848" y="-641" font-family="Helvetica,sans-Serif" font-size="10.00">PDFxTMD::CContinuationExtrapolator</text>
<text text-anchor="middle" x="940" y="-630" font-family="Helvetica,sans-Serif" font-size="10.00">&lt; Reader, Interpolator &gt;</text>
</a>
</g>
</g>
<!-- Node12&#45;&gt;Node13 -->
<g id="edge12" class="edge">
<title>Node12&#45;&gt;Node13</title>
<path fill="none" stroke="midnightblue" d="M812.79,-638C821.77,-638 830.8,-638 839.68,-638"/>
<polygon fill="midnightblue" stroke="midnightblue" points="812.68,-634.5 802.68,-638 812.68,-641.5 812.68,-634.5"/>
</g>
<!-- Node15 -->
<g id="node15" class="node">
<title>Node15</title>
<g id="a_node15"><a xlink:href="classPDFxTMD_1_1CNearestPointExtrapolator.html" target="_top" xlink:title=" ">
<polygon fill="none" stroke="black" points="840,-552 840,-582 1040,-582 1040,-552 840,-552"/>
<text text-anchor="start" x="848" y="-570" font-family="Helvetica,sans-Serif" font-size="10.00">PDFxTMD::CNearestPointExtrapolator</text>
<text text-anchor="middle" x="940" y="-559" font-family="Helvetica,sans-Serif" font-size="10.00">&lt; Reader, Interpolator &gt;</text>
</a>
</g>
</g>
<!-- Node14&#45;&gt;Node15 -->
<g id="edge14" class="edge">
<title>Node14&#45;&gt;Node15</title>
<path fill="none" stroke="midnightblue" d="M812.79,-567C821.77,-567 830.8,-567 839.68,-567"/>
<polygon fill="midnightblue" stroke="midnightblue" points="812.68,-563.5 802.68,-567 812.68,-570.5 812.68,-563.5"/>
</g>
<!-- Node17 -->
<g id="node17" class="node">
<title>Node17</title>
<g id="a_node17"><a xlink:href="classPDFxTMD_1_1IcPDFInterpolator.html" target="_top" xlink:title=" ">
<polygon fill="none" stroke="black" points="390.5,-568 390.5,-598 545.5,-598 545.5,-568 390.5,-568"/>
<text text-anchor="start" x="398.5" y="-586" font-family="Helvetica,sans-Serif" font-size="10.00">PDFxTMD::IcPDFInterpolator</text>
<text text-anchor="middle" x="468" y="-575" font-family="Helvetica,sans-Serif" font-size="10.00">&lt; Reader, Derived &gt;</text>
</a>
</g>
</g>
<!-- Node16&#45;&gt;Node17 -->
<g id="edge16" class="edge">
<title>Node16&#45;&gt;Node17</title>
<path fill="none" stroke="midnightblue" d="M343.06,-614.93C365.22,-609.22 388.39,-603.25 408.62,-598.04"/>
<polygon fill="midnightblue" stroke="midnightblue" points="342.11,-611.56 333.3,-617.44 343.86,-618.34 342.11,-611.56"/>
</g>
<!-- Node19 -->
<g id="node19" class="node">
<title>Node19</title>
<g id="a_node19"><a xlink:href="classPDFxTMD_1_1ITMDInterpolator.html" target="_top" xlink:title=" ">
<polygon fill="none" stroke="black" points="391.5,-519 391.5,-549 544.5,-549 544.5,-519 391.5,-519"/>
<text text-anchor="start" x="399.5" y="-537" font-family="Helvetica,sans-Serif" font-size="10.00">PDFxTMD::ITMDInterpolator</text>
<text text-anchor="middle" x="468" y="-526" font-family="Helvetica,sans-Serif" font-size="10.00">&lt; Reader, Derived &gt;</text>
</a>
</g>
</g>
<!-- Node18&#45;&gt;Node19 -->
<g id="edge18" class="edge">
<title>Node18&#45;&gt;Node19</title>
<path fill="none" stroke="midnightblue" d="M351.22,-557.86C365.68,-554.88 380.36,-551.86 394.19,-549.01"/>
<polygon fill="midnightblue" stroke="midnightblue" points="350.35,-554.47 341.26,-559.91 351.76,-561.32 350.35,-554.47"/>
</g>
<!-- Node22 -->
<g id="node22" class="node">
<title>Node22</title>
<g id="a_node22"><a xlink:href="classPDFxTMD_1_1CDefaultLHAPDFFileReader.html" target="_top" xlink:title=" ">
<polygon fill="none" stroke="black" points="383,-470 383,-500 553,-500 553,-470 383,-470"/>
<text text-anchor="start" x="391" y="-488" font-family="Helvetica,sans-Serif" font-size="10.00">PDFxTMD::CDefaultLHAPDFFile</text>
<text text-anchor="middle" x="468" y="-477" font-family="Helvetica,sans-Serif" font-size="10.00">Reader</text>
</a>
</g>
</g>
<!-- Node21&#45;&gt;Node22 -->
<g id="edge21" class="edge">
<title>Node21&#45;&gt;Node22</title>
<path fill="none" stroke="midnightblue" d="M343.89,-478.66C356.82,-479.32 370.08,-480.01 382.88,-480.67"/>
<polygon fill="midnightblue" stroke="midnightblue" points="343.77,-475.15 333.61,-478.13 343.41,-482.14 343.77,-475.15"/>
</g>
<!-- Node25 -->
<g id="node25" class="node">
<title>Node25</title>
<g id="a_node25"><a xlink:href="classPDFxTMD_1_1TDefaultAllFlavorReader.html" target="_top" xlink:title=" ">
<polygon fill="none" stroke="black" points="390,-421 390,-451 546,-451 546,-421 390,-421"/>
<text text-anchor="start" x="398" y="-439" font-family="Helvetica,sans-Serif" font-size="10.00">PDFxTMD::TDefaultAllFlavor</text>
<text text-anchor="middle" x="468" y="-428" font-family="Helvetica,sans-Serif" font-size="10.00">Reader</text>
</a>
</g>
</g>
<!-- Node24&#45;&gt;Node25 -->
<g id="edge24" class="edge">
<title>Node24&#45;&gt;Node25</title>
<path fill="none" stroke="midnightblue" d="M316.06,-393.8C335.58,-399.33 357.18,-405.44 377,-411 388.55,-414.24 400.95,-417.7 412.73,-420.97"/>
<polygon fill="midnightblue" stroke="midnightblue" points="316.94,-390.41 306.37,-391.05 315.03,-397.15 316.94,-390.41"/>
</g>
<!-- Node27 -->
<g id="node27" class="node">
<title>Node27</title>
<g id="a_node27"><a xlink:href="classPDFxTMD_1_1ITMDExtrapolator.html" target="_top" xlink:title=" ">
<polygon fill="none" stroke="black" points="387,-360.5 387,-401.5 549,-401.5 549,-360.5 387,-360.5"/>
<text text-anchor="start" x="395" y="-389.5" font-family="Helvetica,sans-Serif" font-size="10.00">PDFxTMD::ITMDExtrapolator</text>
<text text-anchor="start" x="395" y="-378.5" font-family="Helvetica,sans-Serif" font-size="10.00">&lt; TZeroExtrapolator&lt; Reader</text>
<text text-anchor="middle" x="468" y="-367.5" font-family="Helvetica,sans-Serif" font-size="10.00"> &gt;, Reader &gt;</text>
</a>
</g>
</g>
<!-- Node26&#45;&gt;Node27 -->
<g id="edge26" class="edge">
<title>Node26&#45;&gt;Node27</title>
<path fill="none" stroke="midnightblue" d="M336.47,-344.32C355.42,-349.64 375.42,-355.26 393.92,-360.46"/>
<polygon fill="midnightblue" stroke="midnightblue" points="337.25,-340.9 326.68,-341.56 335.36,-347.64 337.25,-340.9"/>
</g>
<!-- Node29 -->
<g id="node29" class="node">
<title>Node29</title>
<g id="a_node29"><a xlink:href="classPDFxTMD_1_1ITMDExtrapolator.html" target="_top" xlink:title=" ">
<polygon fill="none" stroke="black" points="390,-300.5 390,-341.5 546,-341.5 546,-300.5 390,-300.5"/>
<text text-anchor="start" x="398" y="-329.5" font-family="Helvetica,sans-Serif" font-size="10.00">PDFxTMD::ITMDExtrapolator</text>
<text text-anchor="start" x="398" y="-318.5" font-family="Helvetica,sans-Serif" font-size="10.00">&lt; TErrExtrapolator&lt; Reader</text>
<text text-anchor="middle" x="468" y="-307.5" font-family="Helvetica,sans-Serif" font-size="10.00"> &gt;, Reader &gt;</text>
</a>
</g>
</g>
<!-- Node26&#45;&gt;Node29 -->
<g id="edge28" class="edge">
<title>Node26&#45;&gt;Node29</title>
<path fill="none" stroke="midnightblue" d="M347.48,-321C361.6,-321 376.02,-321 389.74,-321"/>
<polygon fill="midnightblue" stroke="midnightblue" points="347.27,-317.5 337.27,-321 347.27,-324.5 347.27,-317.5"/>
</g>
<!-- Node31 -->
<g id="node31" class="node">
<title>Node31</title>
<g id="a_node31"><a xlink:href="classPDFxTMD_1_1IcPDFExtrapolator.html" target="_top" xlink:title=" ">
<polygon fill="none" stroke="black" points="389,-240.5 389,-281.5 547,-281.5 547,-240.5 389,-240.5"/>
<text text-anchor="start" x="397" y="-269.5" font-family="Helvetica,sans-Serif" font-size="10.00">PDFxTMD::IcPDFExtrapolator</text>
<text text-anchor="start" x="397" y="-258.5" font-family="Helvetica,sans-Serif" font-size="10.00">&lt; CErrExtrapolator&lt; Reader</text>
<text text-anchor="middle" x="468" y="-247.5" font-family="Helvetica,sans-Serif" font-size="10.00"> &gt;, Reader &gt;</text>
</a>
</g>
</g>
<!-- Node26&#45;&gt;Node31 -->
<g id="edge30" class="edge">
<title>Node26&#45;&gt;Node31</title>
<path fill="none" stroke="midnightblue" d="M336.47,-297.68C355.42,-292.36 375.42,-286.74 393.92,-281.54"/>
<polygon fill="midnightblue" stroke="midnightblue" points="335.36,-294.36 326.68,-300.44 337.25,-301.1 335.36,-294.36"/>
</g>
<!-- Node28 -->
<g id="node28" class="node">
<title>Node28</title>
<g id="a_node28"><a xlink:href="classPDFxTMD_1_1TZeroExtrapolator.html" target="_top" xlink:title=" ">
<polygon fill="none" stroke="black" points="620,-366 620,-396 779,-396 779,-366 620,-366"/>
<text text-anchor="start" x="628" y="-384" font-family="Helvetica,sans-Serif" font-size="10.00">PDFxTMD::TZeroExtrapolator</text>
<text text-anchor="middle" x="699.5" y="-373" font-family="Helvetica,sans-Serif" font-size="10.00">&lt; Reader &gt;</text>
</a>
</g>
</g>
<!-- Node27&#45;&gt;Node28 -->
<g id="edge27" class="edge">
<title>Node27&#45;&gt;Node28</title>
<path fill="none" stroke="midnightblue" d="M559.3,-381C579.3,-381 600.34,-381 619.83,-381"/>
<polygon fill="midnightblue" stroke="midnightblue" points="559.27,-377.5 549.27,-381 559.27,-384.5 559.27,-377.5"/>
</g>
<!-- Node30 -->
<g id="node30" class="node">
<title>Node30</title>
<g id="a_node30"><a xlink:href="classPDFxTMD_1_1TErrExtrapolator.html" target="_top" xlink:title=" ">
<polygon fill="none" stroke="black" points="624.5,-306 624.5,-336 774.5,-336 774.5,-306 624.5,-306"/>
<text text-anchor="start" x="632.5" y="-324" font-family="Helvetica,sans-Serif" font-size="10.00">PDFxTMD::TErrExtrapolator</text>
<text text-anchor="middle" x="699.5" y="-313" font-family="Helvetica,sans-Serif" font-size="10.00">&lt; Reader &gt;</text>
</a>
</g>
</g>
<!-- Node29&#45;&gt;Node30 -->
<g id="edge29" class="edge">
<title>Node29&#45;&gt;Node30</title>
<path fill="none" stroke="midnightblue" d="M556.26,-321C578.71,-321 602.65,-321 624.37,-321"/>
<polygon fill="midnightblue" stroke="midnightblue" points="556.06,-317.5 546.06,-321 556.06,-324.5 556.06,-317.5"/>
</g>
<!-- Node32 -->
<g id="node32" class="node">
<title>Node32</title>
<g id="a_node32"><a xlink:href="classPDFxTMD_1_1CErrExtrapolator.html" target="_top" xlink:title=" ">
<polygon fill="none" stroke="black" points="624,-246 624,-276 775,-276 775,-246 624,-246"/>
<text text-anchor="start" x="632" y="-264" font-family="Helvetica,sans-Serif" font-size="10.00">PDFxTMD::CErrExtrapolator</text>
<text text-anchor="middle" x="699.5" y="-253" font-family="Helvetica,sans-Serif" font-size="10.00">&lt; Reader &gt;</text>
</a>
</g>
</g>
<!-- Node31&#45;&gt;Node32 -->
<g id="edge31" class="edge">
<title>Node31&#45;&gt;Node32</title>
<path fill="none" stroke="midnightblue" d="M557.03,-261C579.06,-261 602.49,-261 623.8,-261"/>
<polygon fill="midnightblue" stroke="midnightblue" points="557.02,-257.5 547.02,-261 557.02,-264.5 557.02,-257.5"/>
</g>
<!-- Node34 -->
<g id="node34" class="node">
<title>Node34</title>
<g id="a_node34"><a xlink:href="classPDFxTMD_1_1ITMDInterpolator.html" target="_top" xlink:title=" ">
<polygon fill="none" stroke="black" points="391.5,-180.5 391.5,-221.5 544.5,-221.5 544.5,-180.5 391.5,-180.5"/>
<text text-anchor="start" x="399.5" y="-209.5" font-family="Helvetica,sans-Serif" font-size="10.00">PDFxTMD::ITMDInterpolator</text>
<text text-anchor="start" x="399.5" y="-198.5" font-family="Helvetica,sans-Serif" font-size="10.00">&lt; TTrilinearInterpolator,</text>
<text text-anchor="middle" x="468" y="-187.5" font-family="Helvetica,sans-Serif" font-size="10.00"> TDefaultAllFlavorReader &gt;</text>
</a>
</g>
</g>
<!-- Node33&#45;&gt;Node34 -->
<g id="edge33" class="edge">
<title>Node33&#45;&gt;Node34</title>
<path fill="none" stroke="midnightblue" d="M345.7,-183.96C360.97,-186.1 376.65,-188.3 391.45,-190.38"/>
<polygon fill="midnightblue" stroke="midnightblue" points="346.13,-180.48 335.74,-182.56 345.15,-187.41 346.13,-180.48"/>
</g>
<!-- Node36 -->
<g id="node36" class="node">
<title>Node36</title>
<g id="a_node36"><a xlink:href="classPDFxTMD_1_1IcPDFInterpolator.html" target="_top" xlink:title=" ">
<polygon fill="none" stroke="black" points="386,-120.5 386,-161.5 550,-161.5 550,-120.5 386,-120.5"/>
<text text-anchor="start" x="394" y="-149.5" font-family="Helvetica,sans-Serif" font-size="10.00">PDFxTMD::IcPDFInterpolator</text>
<text text-anchor="start" x="394" y="-138.5" font-family="Helvetica,sans-Serif" font-size="10.00">&lt; CBilinearInterpolator,</text>
<text text-anchor="middle" x="468" y="-127.5" font-family="Helvetica,sans-Serif" font-size="10.00"> CDefaultLHAPDFFileReader &gt;</text>
</a>
</g>
</g>
<!-- Node33&#45;&gt;Node36 -->
<g id="edge35" class="edge">
<title>Node33&#45;&gt;Node36</title>
<path fill="none" stroke="midnightblue" d="M345.85,-158.02C359.16,-156.15 372.78,-154.24 385.86,-152.4"/>
<polygon fill="midnightblue" stroke="midnightblue" points="345.15,-154.59 335.74,-159.44 346.13,-161.52 345.15,-154.59"/>
</g>
<!-- Node38 -->
<g id="node38" class="node">
<title>Node38</title>
<g id="a_node38"><a xlink:href="classPDFxTMD_1_1IcPDFInterpolator.html" target="_top" xlink:title=" ">
<polygon fill="none" stroke="black" points="386,-60.5 386,-101.5 550,-101.5 550,-60.5 386,-60.5"/>
<text text-anchor="start" x="394" y="-89.5" font-family="Helvetica,sans-Serif" font-size="10.00">PDFxTMD::IcPDFInterpolator</text>
<text text-anchor="start" x="394" y="-78.5" font-family="Helvetica,sans-Serif" font-size="10.00">&lt; CGSLBilinearInterpolator,</text>
<text text-anchor="middle" x="468" y="-67.5" font-family="Helvetica,sans-Serif" font-size="10.00"> CDefaultLHAPDFFileReader &gt;</text>
</a>
</g>
</g>
<!-- Node33&#45;&gt;Node38 -->
<g id="edge37" class="edge">
<title>Node33&#45;&gt;Node38</title>
<path fill="none" stroke="midnightblue" d="M330.84,-146.26C334.32,-144.6 337.73,-142.84 341,-141 359.15,-130.79 358.81,-121.14 377,-111 383.19,-107.55 389.83,-104.42 396.61,-101.59"/>
<polygon fill="midnightblue" stroke="midnightblue" points="329.15,-143.19 321.46,-150.48 332.02,-149.57 329.15,-143.19"/>
</g>
<!-- Node40 -->
<g id="node40" class="node">
<title>Node40</title>
<g id="a_node40"><a xlink:href="classPDFxTMD_1_1IcPDFInterpolator.html" target="_top" xlink:title=" ">
<polygon fill="none" stroke="black" points="386,-0.5 386,-41.5 550,-41.5 550,-0.5 386,-0.5"/>
<text text-anchor="start" x="394" y="-29.5" font-family="Helvetica,sans-Serif" font-size="10.00">PDFxTMD::IcPDFInterpolator</text>
<text text-anchor="start" x="394" y="-18.5" font-family="Helvetica,sans-Serif" font-size="10.00">&lt; CGSLBicubicInterpolator,</text>
<text text-anchor="middle" x="468" y="-7.5" font-family="Helvetica,sans-Serif" font-size="10.00"> CDefaultLHAPDFFileReader &gt;</text>
</a>
</g>
</g>
<!-- Node33&#45;&gt;Node40 -->
<g id="edge39" class="edge">
<title>Node33&#45;&gt;Node40</title>
<path fill="none" stroke="midnightblue" d="M337.01,-144.51C338.39,-143.39 339.72,-142.22 341,-141 372.22,-111.31 345.66,-80.56 377,-51 380.71,-47.5 384.85,-44.4 389.25,-41.67"/>
<polygon fill="midnightblue" stroke="midnightblue" points="334.81,-141.78 328.69,-150.42 338.87,-147.48 334.81,-141.78"/>
</g>
<!-- Node35 -->
<g id="node35" class="node">
<title>Node35</title>
<g id="a_node35"><a xlink:href="classPDFxTMD_1_1TTrilinearInterpolator.html" target="_top" xlink:title=" ">
<polygon fill="none" stroke="black" points="613,-191.5 613,-210.5 786,-210.5 786,-191.5 613,-191.5"/>
<text text-anchor="middle" x="699.5" y="-198.5" font-family="Helvetica,sans-Serif" font-size="10.00">PDFxTMD::TTrilinearInterpolator</text>
</a>
</g>
</g>
<!-- Node34&#45;&gt;Node35 -->
<g id="edge34" class="edge">
<title>Node34&#45;&gt;Node35</title>
<path fill="none" stroke="midnightblue" d="M554.88,-201C573.84,-201 593.93,-201 612.88,-201"/>
<polygon fill="midnightblue" stroke="midnightblue" points="554.78,-197.5 544.78,-201 554.78,-204.5 554.78,-197.5"/>
</g>
<!-- Node37 -->
<g id="node37" class="node">
<title>Node37</title>
<g id="a_node37"><a xlink:href="classPDFxTMD_1_1CBilinearInterpolator.html" target="_top" xlink:title=" ">
<polygon fill="none" stroke="black" points="613.5,-131.5 613.5,-150.5 785.5,-150.5 785.5,-131.5 613.5,-131.5"/>
<text text-anchor="middle" x="699.5" y="-138.5" font-family="Helvetica,sans-Serif" font-size="10.00">PDFxTMD::CBilinearInterpolator</text>
</a>
</g>
</g>
<!-- Node36&#45;&gt;Node37 -->
<g id="edge36" class="edge">
<title>Node36&#45;&gt;Node37</title>
<path fill="none" stroke="midnightblue" d="M560.44,-141C577.94,-141 596.2,-141 613.49,-141"/>
<polygon fill="midnightblue" stroke="midnightblue" points="560.24,-137.5 550.24,-141 560.24,-144.5 560.24,-137.5"/>
</g>
<!-- Node39 -->
<g id="node39" class="node">
<title>Node39</title>
<g id="a_node39"><a xlink:href="classPDFxTMD_1_1CGSLBilinearInterpolator.html" target="_top" xlink:title=" ">
<polygon fill="none" stroke="black" points="604,-71.5 604,-90.5 795,-90.5 795,-71.5 604,-71.5"/>
<text text-anchor="middle" x="699.5" y="-78.5" font-family="Helvetica,sans-Serif" font-size="10.00">PDFxTMD::CGSLBilinearInterpolator</text>
</a>
</g>
</g>
<!-- Node38&#45;&gt;Node39 -->
<g id="edge38" class="edge">
<title>Node38&#45;&gt;Node39</title>
<path fill="none" stroke="midnightblue" d="M560.47,-81C574.67,-81 589.37,-81 603.64,-81"/>
<polygon fill="midnightblue" stroke="midnightblue" points="560.24,-77.5 550.24,-81 560.24,-84.5 560.24,-77.5"/>
</g>
<!-- Node41 -->
<g id="node41" class="node">
<title>Node41</title>
<g id="a_node41"><a xlink:href="classPDFxTMD_1_1CGSLBicubicInterpolator.html" target="_top" xlink:title=" ">
<polygon fill="none" stroke="black" points="605.5,-11.5 605.5,-30.5 793.5,-30.5 793.5,-11.5 605.5,-11.5"/>
<text text-anchor="middle" x="699.5" y="-18.5" font-family="Helvetica,sans-Serif" font-size="10.00">PDFxTMD::CGSLBicubicInterpolator</text>
</a>
</g>
</g>
<!-- Node40&#45;&gt;Node41 -->
<g id="edge40" class="edge">
<title>Node40&#45;&gt;Node41</title>
<path fill="none" stroke="midnightblue" d="M560.36,-21C575.12,-21 590.42,-21 605.23,-21"/>
<polygon fill="midnightblue" stroke="midnightblue" points="560.24,-17.5 550.24,-21 560.24,-24.5 560.24,-17.5"/>
</g>
</g>
</svg>
