<?xml version="1.0" encoding="UTF-8" standalone="no"?>
<!DOCTYPE svg PUBLIC "-//W3C//DTD SVG 1.1//EN"
 "http://www.w3.org/Graphics/SVG/1.1/DTD/svg11.dtd">
<!-- Generated by graphviz version 2.43.0 (0)
 -->
<!-- Title: PDFxTMD::TZeroExtrapolator&lt; Reader &gt; Pages: 1 -->
<svg width="177pt" height="262pt"
 viewBox="0.00 0.00 177.00 262.00" xmlns="http://www.w3.org/2000/svg" xmlns:xlink="http://www.w3.org/1999/xlink">
<g id="graph0" class="graph" transform="scale(1 1) rotate(0) translate(4 258)">
<title>PDFxTMD::TZeroExtrapolator&lt; Reader &gt;</title>
<!-- Node1 -->
<g id="node1" class="node">
<title>Node1</title>
<g id="a_node1"><a xlink:title=" ">
<polygon fill="#bfbfbf" stroke="black" points="5,-0.5 5,-30.5 164,-30.5 164,-0.5 5,-0.5"/>
<text text-anchor="start" x="13" y="-18.5" font-family="Helvetica,sans-Serif" font-size="10.00">PDFxTMD::TZeroExtrapolator</text>
<text text-anchor="middle" x="84.5" y="-7.5" font-family="Helvetica,sans-Serif" font-size="10.00">&lt; Reader &gt;</text>
</a>
</g>
</g>
<!-- Node2 -->
<g id="node2" class="node">
<title>Node2</title>
<g id="a_node2"><a xlink:href="classPDFxTMD_1_1ITMDExtrapolator.html" target="_top" xlink:title=" ">
<polygon fill="none" stroke="black" points="3.5,-67.5 3.5,-108.5 165.5,-108.5 165.5,-67.5 3.5,-67.5"/>
<text text-anchor="start" x="11.5" y="-96.5" font-family="Helvetica,sans-Serif" font-size="10.00">PDFxTMD::ITMDExtrapolator</text>
<text text-anchor="start" x="11.5" y="-85.5" font-family="Helvetica,sans-Serif" font-size="10.00">&lt; TZeroExtrapolator&lt; Reader</text>
<text text-anchor="middle" x="84.5" y="-74.5" font-family="Helvetica,sans-Serif" font-size="10.00"> &gt;, Reader &gt;</text>
</a>
</g>
</g>
<!-- Node2&#45;&gt;Node1 -->
<g id="edge1" class="edge">
<title>Node2&#45;&gt;Node1</title>
<path fill="none" stroke="midnightblue" d="M84.5,-57.08C84.5,-48.01 84.5,-38.45 84.5,-30.89"/>
<polygon fill="midnightblue" stroke="midnightblue" points="81,-57.36 84.5,-67.36 88,-57.36 81,-57.36"/>
</g>
<!-- Node3 -->
<g id="node3" class="node">
<title>Node3</title>
<g id="a_node3"><a xlink:href="classPDFxTMD_1_1IExtrapolator.html" target="_top" xlink:title=" ">
<polygon fill="none" stroke="black" points="0,-145.5 0,-186.5 169,-186.5 169,-145.5 0,-145.5"/>
<text text-anchor="start" x="8" y="-174.5" font-family="Helvetica,sans-Serif" font-size="10.00">PDFxTMD::IExtrapolator</text>
<text text-anchor="start" x="8" y="-163.5" font-family="Helvetica,sans-Serif" font-size="10.00">&lt; Derived, Reader, Extrapolate</text>
<text text-anchor="middle" x="84.5" y="-152.5" font-family="Helvetica,sans-Serif" font-size="10.00">Args &gt;</text>
</a>
</g>
</g>
<!-- Node3&#45;&gt;Node2 -->
<g id="edge2" class="edge">
<title>Node3&#45;&gt;Node2</title>
<path fill="none" stroke="midnightblue" d="M84.5,-135.3C84.5,-126.3 84.5,-116.65 84.5,-108.51"/>
<polygon fill="midnightblue" stroke="midnightblue" points="81,-135.43 84.5,-145.43 88,-135.43 81,-135.43"/>
</g>
<!-- Node4 -->
<g id="node4" class="node">
<title>Node4</title>
<g id="a_node4"><a xlink:href="classPDFxTMD_1_1CRTPBase.html" target="_top" xlink:title=" ">
<polygon fill="none" stroke="black" points="20.5,-223.5 20.5,-253.5 148.5,-253.5 148.5,-223.5 20.5,-223.5"/>
<text text-anchor="start" x="28.5" y="-241.5" font-family="Helvetica,sans-Serif" font-size="10.00">PDFxTMD::CRTPBase&lt;</text>
<text text-anchor="middle" x="84.5" y="-230.5" font-family="Helvetica,sans-Serif" font-size="10.00"> Derived &gt;</text>
</a>
</g>
</g>
<!-- Node4&#45;&gt;Node3 -->
<g id="edge3" class="edge">
<title>Node4&#45;&gt;Node3</title>
<path fill="none" stroke="midnightblue" d="M84.5,-212.98C84.5,-204.35 84.5,-194.76 84.5,-186.59"/>
<polygon fill="midnightblue" stroke="midnightblue" points="81,-213.23 84.5,-223.23 88,-213.23 81,-213.23"/>
</g>
</g>
</svg>
