<?xml version="1.0" encoding="UTF-8" standalone="no"?>
<!DOCTYPE svg PUBLIC "-//W3C//DTD SVG 1.1//EN"
 "http://www.w3.org/Graphics/SVG/1.1/DTD/svg11.dtd">
<!-- Generated by graphviz version 2.43.0 (0)
 -->
<!-- Title: PDFxTMD::PDFxTMDException Pages: 1 -->
<svg width="519pt" height="294pt"
 viewBox="0.00 0.00 519.00 294.00" xmlns="http://www.w3.org/2000/svg" xmlns:xlink="http://www.w3.org/1999/xlink">
<g id="graph0" class="graph" transform="scale(1 1) rotate(0) translate(4 290)">
<title>PDFxTMD::PDFxTMDException</title>
<!-- Node1 -->
<g id="node1" class="node">
<title>Node1</title>
<g id="a_node1"><a xlink:title=" ">
<polygon fill="#bfbfbf" stroke="black" points="122,-133.5 122,-152.5 289,-152.5 289,-133.5 122,-133.5"/>
<text text-anchor="middle" x="205.5" y="-140.5" font-family="Helvetica,sans-Serif" font-size="10.00">PDFxTMD::PDFxTMDException</text>
</a>
</g>
</g>
<!-- Node3 -->
<g id="node3" class="node">
<title>Node3</title>
<g id="a_node3"><a xlink:href="classPDFxTMD_1_1FileLoadException.html" target="_top" xlink:title=" ">
<polygon fill="none" stroke="black" points="338.5,-266.5 338.5,-285.5 497.5,-285.5 497.5,-266.5 338.5,-266.5"/>
<text text-anchor="middle" x="418" y="-273.5" font-family="Helvetica,sans-Serif" font-size="10.00">PDFxTMD::FileLoadException</text>
</a>
</g>
</g>
<!-- Node1&#45;&gt;Node3 -->
<g id="edge2" class="edge">
<title>Node1&#45;&gt;Node3</title>
<path fill="none" stroke="midnightblue" d="M219.68,-160.93C239.51,-186.52 279.59,-233.08 325,-257 332.36,-260.88 340.44,-263.96 348.66,-266.42"/>
<polygon fill="midnightblue" stroke="midnightblue" points="222.36,-158.68 213.53,-152.82 216.78,-162.9 222.36,-158.68"/>
</g>
<!-- Node4 -->
<g id="node4" class="node">
<title>Node4</title>
<g id="a_node4"><a xlink:href="classPDFxTMD_1_1InitializationError.html" target="_top" xlink:title=" ">
<polygon fill="none" stroke="black" points="340.5,-228.5 340.5,-247.5 495.5,-247.5 495.5,-228.5 340.5,-228.5"/>
<text text-anchor="middle" x="418" y="-235.5" font-family="Helvetica,sans-Serif" font-size="10.00">PDFxTMD::InitializationError</text>
</a>
</g>
</g>
<!-- Node1&#45;&gt;Node4 -->
<g id="edge3" class="edge">
<title>Node1&#45;&gt;Node4</title>
<path fill="none" stroke="midnightblue" d="M226.22,-158.91C248.77,-176.29 287.44,-203.69 325,-219 334.52,-222.88 344.92,-226 355.2,-228.5"/>
<polygon fill="midnightblue" stroke="midnightblue" points="228.16,-155.98 218.13,-152.57 223.85,-161.49 228.16,-155.98"/>
</g>
<!-- Node5 -->
<g id="node5" class="node">
<title>Node5</title>
<g id="a_node5"><a xlink:href="classPDFxTMD_1_1InvalidFormatException.html" target="_top" xlink:title=" ">
<polygon fill="none" stroke="black" points="325,-190.5 325,-209.5 511,-209.5 511,-190.5 325,-190.5"/>
<text text-anchor="middle" x="418" y="-197.5" font-family="Helvetica,sans-Serif" font-size="10.00">PDFxTMD::InvalidFormatException</text>
</a>
</g>
</g>
<!-- Node1&#45;&gt;Node5 -->
<g id="edge4" class="edge">
<title>Node1&#45;&gt;Node5</title>
<path fill="none" stroke="midnightblue" d="M243.03,-155.83C266.31,-163.73 297.21,-173.7 325,-181 338.09,-184.44 352.37,-187.65 365.68,-190.41"/>
<polygon fill="midnightblue" stroke="midnightblue" points="244.15,-152.51 233.56,-152.59 241.88,-159.14 244.15,-152.51"/>
</g>
<!-- Node6 -->
<g id="node6" class="node">
<title>Node6</title>
<g id="a_node6"><a xlink:href="classPDFxTMD_1_1InvalidInfoFile.html" target="_top" xlink:title=" ">
<polygon fill="none" stroke="black" points="348,-152.5 348,-171.5 488,-171.5 488,-152.5 348,-152.5"/>
<text text-anchor="middle" x="418" y="-159.5" font-family="Helvetica,sans-Serif" font-size="10.00">PDFxTMD::InvalidInfoFile</text>
</a>
</g>
</g>
<!-- Node1&#45;&gt;Node6 -->
<g id="edge5" class="edge">
<title>Node1&#45;&gt;Node6</title>
<path fill="none" stroke="midnightblue" d="M299.21,-151.37C315.57,-152.84 332.34,-154.36 347.91,-155.76"/>
<polygon fill="midnightblue" stroke="midnightblue" points="299.37,-147.87 289.09,-150.45 298.74,-154.84 299.37,-147.87"/>
</g>
<!-- Node7 -->
<g id="node7" class="node">
<title>Node7</title>
<g id="a_node7"><a xlink:href="classPDFxTMD_1_1InvalidInputError.html" target="_top" xlink:title=" ">
<polygon fill="none" stroke="black" points="342,-114.5 342,-133.5 494,-133.5 494,-114.5 342,-114.5"/>
<text text-anchor="middle" x="418" y="-121.5" font-family="Helvetica,sans-Serif" font-size="10.00">PDFxTMD::InvalidInputError</text>
</a>
</g>
</g>
<!-- Node1&#45;&gt;Node7 -->
<g id="edge6" class="edge">
<title>Node1&#45;&gt;Node7</title>
<path fill="none" stroke="midnightblue" d="M299.37,-134.62C313.57,-133.34 328.08,-132.03 341.84,-130.78"/>
<polygon fill="midnightblue" stroke="midnightblue" points="298.74,-131.16 289.09,-135.55 299.37,-138.13 298.74,-131.16"/>
</g>
<!-- Node8 -->
<g id="node8" class="node">
<title>Node8</title>
<g id="a_node8"><a xlink:href="classPDFxTMD_1_1NotSupportError.html" target="_top" xlink:title=" ">
<polygon fill="none" stroke="black" points="343.5,-76.5 343.5,-95.5 492.5,-95.5 492.5,-76.5 343.5,-76.5"/>
<text text-anchor="middle" x="418" y="-83.5" font-family="Helvetica,sans-Serif" font-size="10.00">PDFxTMD::NotSupportError</text>
</a>
</g>
</g>
<!-- Node1&#45;&gt;Node8 -->
<g id="edge7" class="edge">
<title>Node1&#45;&gt;Node8</title>
<path fill="none" stroke="midnightblue" d="M243.03,-130.17C266.31,-122.27 297.21,-112.3 325,-105 338.09,-101.56 352.37,-98.35 365.68,-95.59"/>
<polygon fill="midnightblue" stroke="midnightblue" points="241.88,-126.86 233.56,-133.41 244.15,-133.49 241.88,-126.86"/>
</g>
<!-- Node9 -->
<g id="node9" class="node">
<title>Node9</title>
<g id="a_node9"><a xlink:href="classPDFxTMD_1_1OutOfRangeExcecption.html" target="_top" xlink:title=" ">
<polygon fill="none" stroke="black" points="326.5,-38.5 326.5,-57.5 509.5,-57.5 509.5,-38.5 326.5,-38.5"/>
<text text-anchor="middle" x="418" y="-45.5" font-family="Helvetica,sans-Serif" font-size="10.00">PDFxTMD::OutOfRangeExcecption</text>
</a>
</g>
</g>
<!-- Node1&#45;&gt;Node9 -->
<g id="edge8" class="edge">
<title>Node1&#45;&gt;Node9</title>
<path fill="none" stroke="midnightblue" d="M226.22,-127.09C248.77,-109.71 287.44,-82.31 325,-67 334.52,-63.12 344.92,-60 355.2,-57.5"/>
<polygon fill="midnightblue" stroke="midnightblue" points="223.85,-124.51 218.13,-133.43 228.16,-130.02 223.85,-124.51"/>
</g>
<!-- Node10 -->
<g id="node10" class="node">
<title>Node10</title>
<g id="a_node10"><a xlink:href="classPDFxTMD_1_1PolicyExeption.html" target="_top" xlink:title=" ">
<polygon fill="none" stroke="black" points="347,-0.5 347,-19.5 489,-19.5 489,-0.5 347,-0.5"/>
<text text-anchor="middle" x="418" y="-7.5" font-family="Helvetica,sans-Serif" font-size="10.00">PDFxTMD::PolicyExeption</text>
</a>
</g>
</g>
<!-- Node1&#45;&gt;Node10 -->
<g id="edge9" class="edge">
<title>Node1&#45;&gt;Node10</title>
<path fill="none" stroke="midnightblue" d="M219.68,-125.07C239.51,-99.48 279.59,-52.92 325,-29 332.36,-25.12 340.44,-22.04 348.66,-19.58"/>
<polygon fill="midnightblue" stroke="midnightblue" points="216.78,-123.1 213.53,-133.18 222.36,-127.32 216.78,-123.1"/>
</g>
<!-- Node2 -->
<g id="node2" class="node">
<title>Node2</title>
<g id="a_node2"><a xlink:title=" ">
<polygon fill="none" stroke="#bfbfbf" points="0,-133.5 0,-152.5 86,-152.5 86,-133.5 0,-133.5"/>
<text text-anchor="middle" x="43" y="-140.5" font-family="Helvetica,sans-Serif" font-size="10.00">std::exception</text>
</a>
</g>
</g>
<!-- Node2&#45;&gt;Node1 -->
<g id="edge1" class="edge">
<title>Node2&#45;&gt;Node1</title>
<path fill="none" stroke="midnightblue" d="M96.31,-143C104.54,-143 113.2,-143 121.91,-143"/>
<polygon fill="midnightblue" stroke="midnightblue" points="96.17,-139.5 86.17,-143 96.17,-146.5 96.17,-139.5"/>
</g>
</g>
</svg>
