<?xml version="1.0" encoding="UTF-8" standalone="no"?>
<!DOCTYPE svg PUBLIC "-//W3C//DTD SVG 1.1//EN"
 "http://www.w3.org/Graphics/SVG/1.1/DTD/svg11.dtd">
<!-- Generated by graphviz version 2.43.0 (0)
 -->
<!-- Title: PDFxTMD::IcAdvancedPDFExtrapolator&lt; Derived, Reader, Interpolator &gt; Pages: 1 -->
<svg width="801pt" height="50pt"
 viewBox="0.00 0.00 801.00 50.00" xmlns="http://www.w3.org/2000/svg" xmlns:xlink="http://www.w3.org/1999/xlink">
<g id="graph0" class="graph" transform="scale(1 1) rotate(0) translate(4 46)">
<title>PDFxTMD::IcAdvancedPDFExtrapolator&lt; Derived, Reader, Interpolator &gt;</title>
<!-- Node1 -->
<g id="node1" class="node">
<title>Node1</title>
<g id="a_node1"><a xlink:title=" ">
<polygon fill="#bfbfbf" stroke="black" points="587,-6 587,-36 793,-36 793,-6 587,-6"/>
<text text-anchor="start" x="595" y="-24" font-family="Helvetica,sans-Serif" font-size="10.00">PDFxTMD::IcAdvancedPDFExtrapolator</text>
<text text-anchor="middle" x="690" y="-13" font-family="Helvetica,sans-Serif" font-size="10.00">&lt; Derived, Reader, Interpolator &gt;</text>
</a>
</g>
</g>
<!-- Node2 -->
<g id="node2" class="node">
<title>Node2</title>
<g id="a_node2"><a xlink:href="classPDFxTMD_1_1IAdvancedExtrapolator.html" target="_top" xlink:title=" ">
<polygon fill="none" stroke="black" points="369,-0.5 369,-41.5 551,-41.5 551,-0.5 369,-0.5"/>
<text text-anchor="start" x="377" y="-29.5" font-family="Helvetica,sans-Serif" font-size="10.00">PDFxTMD::IAdvancedExtrapolator</text>
<text text-anchor="start" x="377" y="-18.5" font-family="Helvetica,sans-Serif" font-size="10.00">&lt; Derived, Reader, Interpolator,</text>
<text text-anchor="middle" x="460" y="-7.5" font-family="Helvetica,sans-Serif" font-size="10.00"> PartonFlavor, X_T, MU_T &gt;</text>
</a>
</g>
</g>
<!-- Node2&#45;&gt;Node1 -->
<g id="edge1" class="edge">
<title>Node2&#45;&gt;Node1</title>
<path fill="none" stroke="midnightblue" d="M561.33,-21C569.77,-21 578.3,-21 586.74,-21"/>
<polygon fill="midnightblue" stroke="midnightblue" points="561.11,-17.5 551.11,-21 561.11,-24.5 561.11,-17.5"/>
</g>
<!-- Node3 -->
<g id="node3" class="node">
<title>Node3</title>
<g id="a_node3"><a xlink:href="classPDFxTMD_1_1IExtrapolator.html" target="_top" xlink:title=" ">
<polygon fill="none" stroke="black" points="164,-0.5 164,-41.5 333,-41.5 333,-0.5 164,-0.5"/>
<text text-anchor="start" x="172" y="-29.5" font-family="Helvetica,sans-Serif" font-size="10.00">PDFxTMD::IExtrapolator</text>
<text text-anchor="start" x="172" y="-18.5" font-family="Helvetica,sans-Serif" font-size="10.00">&lt; Derived, Reader, Extrapolate</text>
<text text-anchor="middle" x="248.5" y="-7.5" font-family="Helvetica,sans-Serif" font-size="10.00">Args... &gt;</text>
</a>
</g>
</g>
<!-- Node3&#45;&gt;Node2 -->
<g id="edge2" class="edge">
<title>Node3&#45;&gt;Node2</title>
<path fill="none" stroke="midnightblue" d="M343.46,-21C351.92,-21 360.48,-21 368.9,-21"/>
<polygon fill="midnightblue" stroke="midnightblue" points="343.2,-17.5 333.2,-21 343.2,-24.5 343.2,-17.5"/>
</g>
<!-- Node4 -->
<g id="node4" class="node">
<title>Node4</title>
<g id="a_node4"><a xlink:href="classPDFxTMD_1_1CRTPBase.html" target="_top" xlink:title=" ">
<polygon fill="none" stroke="black" points="0,-6 0,-36 128,-36 128,-6 0,-6"/>
<text text-anchor="start" x="8" y="-24" font-family="Helvetica,sans-Serif" font-size="10.00">PDFxTMD::CRTPBase&lt;</text>
<text text-anchor="middle" x="64" y="-13" font-family="Helvetica,sans-Serif" font-size="10.00"> Derived &gt;</text>
</a>
</g>
</g>
<!-- Node4&#45;&gt;Node3 -->
<g id="edge3" class="edge">
<title>Node4&#45;&gt;Node3</title>
<path fill="none" stroke="midnightblue" d="M138.22,-21C146.64,-21 155.28,-21 163.84,-21"/>
<polygon fill="midnightblue" stroke="midnightblue" points="138.06,-17.5 128.06,-21 138.06,-24.5 138.06,-17.5"/>
</g>
</g>
</svg>
