<?xml version="1.0" encoding="UTF-8" standalone="no"?>
<!DOCTYPE svg PUBLIC "-//W3C//DTD SVG 1.1//EN"
 "http://www.w3.org/Graphics/SVG/1.1/DTD/svg11.dtd">
<!-- Generated by graphviz version 2.43.0 (0)
 -->
<!-- Title: PDFxTMD::ICommand Pages: 1 -->
<svg width="362pt" height="154pt"
 viewBox="0.00 0.00 362.00 153.50" xmlns="http://www.w3.org/2000/svg" xmlns:xlink="http://www.w3.org/1999/xlink">
<g id="graph0" class="graph" transform="scale(1 1) rotate(0) translate(4 149.5)">
<title>PDFxTMD::ICommand</title>
<!-- Node1 -->
<g id="node1" class="node">
<title>Node1</title>
<g id="a_node1"><a xlink:title=" ">
<polygon fill="#bfbfbf" stroke="black" points="0,-57.5 0,-76.5 124,-76.5 124,-57.5 0,-57.5"/>
<text text-anchor="middle" x="62" y="-64.5" font-family="Helvetica,sans-Serif" font-size="10.00">PDFxTMD::ICommand</text>
</a>
</g>
</g>
<!-- Node2 -->
<g id="node2" class="node">
<title>Node2</title>
<g id="a_node2"><a xlink:href="classPDFxTMD_1_1ArchiveExtractorCommand.html" target="_top" xlink:title=" ">
<polygon fill="none" stroke="black" points="181,-115 181,-145 333,-145 333,-115 181,-115"/>
<text text-anchor="start" x="189" y="-133" font-family="Helvetica,sans-Serif" font-size="10.00">PDFxTMD::ArchiveExtractor</text>
<text text-anchor="middle" x="257" y="-122" font-family="Helvetica,sans-Serif" font-size="10.00">Command</text>
</a>
</g>
</g>
<!-- Node1&#45;&gt;Node2 -->
<g id="edge1" class="edge">
<title>Node1&#45;&gt;Node2</title>
<path fill="none" stroke="midnightblue" d="M94.36,-80.38C113.19,-88.13 137.73,-97.77 160,-105 170.81,-108.51 182.43,-111.87 193.72,-114.93"/>
<polygon fill="midnightblue" stroke="midnightblue" points="95.65,-77.12 85.07,-76.51 92.96,-83.59 95.65,-77.12"/>
</g>
<!-- Node3 -->
<g id="node3" class="node">
<title>Node3</title>
<g id="a_node3"><a xlink:href="classPDFxTMD_1_1DownloadUrlCommand.html" target="_top" xlink:title=" ">
<polygon fill="none" stroke="black" points="165,-76.5 165,-95.5 349,-95.5 349,-76.5 165,-76.5"/>
<text text-anchor="middle" x="257" y="-83.5" font-family="Helvetica,sans-Serif" font-size="10.00">PDFxTMD::DownloadUrlCommand</text>
</a>
</g>
</g>
<!-- Node1&#45;&gt;Node3 -->
<g id="edge2" class="edge">
<title>Node1&#45;&gt;Node3</title>
<path fill="none" stroke="midnightblue" d="M134.24,-74.01C144.15,-74.99 154.44,-76 164.66,-77.01"/>
<polygon fill="midnightblue" stroke="midnightblue" points="134.36,-70.51 124.07,-73.01 133.68,-77.47 134.36,-70.51"/>
</g>
<!-- Node4 -->
<g id="node4" class="node">
<title>Node4</title>
<g id="a_node4"><a xlink:href="classPDFxTMD_1_1RepoSelectionCommand.html" target="_top" xlink:title=" ">
<polygon fill="none" stroke="black" points="161.5,-38.5 161.5,-57.5 352.5,-57.5 352.5,-38.5 161.5,-38.5"/>
<text text-anchor="middle" x="257" y="-45.5" font-family="Helvetica,sans-Serif" font-size="10.00">PDFxTMD::RepoSelectionCommand</text>
</a>
</g>
</g>
<!-- Node1&#45;&gt;Node4 -->
<g id="edge3" class="edge">
<title>Node1&#45;&gt;Node4</title>
<path fill="none" stroke="midnightblue" d="M134.02,-60.01C142.97,-59.13 152.24,-58.21 161.48,-57.31"/>
<polygon fill="midnightblue" stroke="midnightblue" points="133.68,-56.53 124.07,-60.99 134.36,-63.49 133.68,-56.53"/>
</g>
<!-- Node5 -->
<g id="node5" class="node">
<title>Node5</title>
<g id="a_node5"><a xlink:href="classPDFxTMD_1_1pathSelectionCommnand.html" target="_top" xlink:title=" ">
<polygon fill="none" stroke="black" points="160,-0.5 160,-19.5 354,-19.5 354,-0.5 160,-0.5"/>
<text text-anchor="middle" x="257" y="-7.5" font-family="Helvetica,sans-Serif" font-size="10.00">PDFxTMD::pathSelectionCommnand</text>
</a>
</g>
</g>
<!-- Node1&#45;&gt;Node5 -->
<g id="edge4" class="edge">
<title>Node1&#45;&gt;Node5</title>
<path fill="none" stroke="midnightblue" d="M93.47,-53.45C112.34,-45.46 137.23,-35.65 160,-29 172.48,-25.35 186.07,-22.19 198.99,-19.55"/>
<polygon fill="midnightblue" stroke="midnightblue" points="92,-50.27 84.19,-57.43 94.76,-56.7 92,-50.27"/>
</g>
</g>
</svg>
