<?xml version="1.0" encoding="UTF-8" standalone="no"?>
<!DOCTYPE svg PUBLIC "-//W3C//DTD SVG 1.1//EN"
 "http://www.w3.org/Graphics/SVG/1.1/DTD/svg11.dtd">
<!-- Generated by graphviz version 2.43.0 (0)
 -->
<!-- Title: PDFxTMD::IExtrapolator&lt; Derived, Reader, ExtrapolateArgs &gt; Pages: 1 -->
<svg width="734pt" height="170pt"
 viewBox="0.00 0.00 734.00 170.00" xmlns="http://www.w3.org/2000/svg" xmlns:xlink="http://www.w3.org/1999/xlink">
<g id="graph0" class="graph" transform="scale(1 1) rotate(0) translate(4 166)">
<title>PDFxTMD::IExtrapolator&lt; Derived, Reader, ExtrapolateArgs &gt;</title>
<!-- Node1 -->
<g id="node1" class="node">
<title>Node1</title>
<g id="a_node1"><a xlink:title=" ">
<polygon fill="#bfbfbf" stroke="black" points="164,-60.5 164,-101.5 333,-101.5 333,-60.5 164,-60.5"/>
<text text-anchor="start" x="172" y="-89.5" font-family="Helvetica,sans-Serif" font-size="10.00">PDFxTMD::IExtrapolator</text>
<text text-anchor="start" x="172" y="-78.5" font-family="Helvetica,sans-Serif" font-size="10.00">&lt; Derived, Reader, Extrapolate</text>
<text text-anchor="middle" x="248.5" y="-67.5" font-family="Helvetica,sans-Serif" font-size="10.00">Args &gt;</text>
</a>
</g>
</g>
<!-- Node3 -->
<g id="node3" class="node">
<title>Node3</title>
<g id="a_node3"><a xlink:href="classPDFxTMD_1_1ITMDExtrapolator.html" target="_top" xlink:title=" ">
<polygon fill="none" stroke="black" points="369,-120.5 369,-161.5 531,-161.5 531,-120.5 369,-120.5"/>
<text text-anchor="start" x="377" y="-149.5" font-family="Helvetica,sans-Serif" font-size="10.00">PDFxTMD::ITMDExtrapolator</text>
<text text-anchor="start" x="377" y="-138.5" font-family="Helvetica,sans-Serif" font-size="10.00">&lt; TZeroExtrapolator&lt; Reader</text>
<text text-anchor="middle" x="450" y="-127.5" font-family="Helvetica,sans-Serif" font-size="10.00"> &gt;, Reader &gt;</text>
</a>
</g>
</g>
<!-- Node1&#45;&gt;Node3 -->
<g id="edge2" class="edge">
<title>Node1&#45;&gt;Node3</title>
<path fill="none" stroke="midnightblue" d="M327.52,-104.47C345.08,-109.75 363.59,-115.31 380.71,-120.46"/>
<polygon fill="midnightblue" stroke="midnightblue" points="328.46,-101.09 317.88,-101.56 326.45,-107.8 328.46,-101.09"/>
</g>
<!-- Node5 -->
<g id="node5" class="node">
<title>Node5</title>
<g id="a_node5"><a xlink:href="classPDFxTMD_1_1ITMDExtrapolator.html" target="_top" xlink:title=" ">
<polygon fill="none" stroke="black" points="372,-60.5 372,-101.5 528,-101.5 528,-60.5 372,-60.5"/>
<text text-anchor="start" x="380" y="-89.5" font-family="Helvetica,sans-Serif" font-size="10.00">PDFxTMD::ITMDExtrapolator</text>
<text text-anchor="start" x="380" y="-78.5" font-family="Helvetica,sans-Serif" font-size="10.00">&lt; TErrExtrapolator&lt; Reader</text>
<text text-anchor="middle" x="450" y="-67.5" font-family="Helvetica,sans-Serif" font-size="10.00"> &gt;, Reader &gt;</text>
</a>
</g>
</g>
<!-- Node1&#45;&gt;Node5 -->
<g id="edge4" class="edge">
<title>Node1&#45;&gt;Node5</title>
<path fill="none" stroke="midnightblue" d="M343.5,-81C352.99,-81 362.55,-81 371.84,-81"/>
<polygon fill="midnightblue" stroke="midnightblue" points="343.24,-77.5 333.24,-81 343.24,-84.5 343.24,-77.5"/>
</g>
<!-- Node7 -->
<g id="node7" class="node">
<title>Node7</title>
<g id="a_node7"><a xlink:href="classPDFxTMD_1_1IcPDFExtrapolator.html" target="_top" xlink:title=" ">
<polygon fill="none" stroke="black" points="371,-0.5 371,-41.5 529,-41.5 529,-0.5 371,-0.5"/>
<text text-anchor="start" x="379" y="-29.5" font-family="Helvetica,sans-Serif" font-size="10.00">PDFxTMD::IcPDFExtrapolator</text>
<text text-anchor="start" x="379" y="-18.5" font-family="Helvetica,sans-Serif" font-size="10.00">&lt; CErrExtrapolator&lt; Reader</text>
<text text-anchor="middle" x="450" y="-7.5" font-family="Helvetica,sans-Serif" font-size="10.00"> &gt;, Reader &gt;</text>
</a>
</g>
</g>
<!-- Node1&#45;&gt;Node7 -->
<g id="edge6" class="edge">
<title>Node1&#45;&gt;Node7</title>
<path fill="none" stroke="midnightblue" d="M327.52,-57.53C345.08,-52.25 363.59,-46.69 380.71,-41.54"/>
<polygon fill="midnightblue" stroke="midnightblue" points="326.45,-54.2 317.88,-60.44 328.46,-60.91 326.45,-54.2"/>
</g>
<!-- Node2 -->
<g id="node2" class="node">
<title>Node2</title>
<g id="a_node2"><a xlink:href="classPDFxTMD_1_1CRTPBase.html" target="_top" xlink:title=" ">
<polygon fill="none" stroke="black" points="0,-66 0,-96 128,-96 128,-66 0,-66"/>
<text text-anchor="start" x="8" y="-84" font-family="Helvetica,sans-Serif" font-size="10.00">PDFxTMD::CRTPBase&lt;</text>
<text text-anchor="middle" x="64" y="-73" font-family="Helvetica,sans-Serif" font-size="10.00"> Derived &gt;</text>
</a>
</g>
</g>
<!-- Node2&#45;&gt;Node1 -->
<g id="edge1" class="edge">
<title>Node2&#45;&gt;Node1</title>
<path fill="none" stroke="midnightblue" d="M138.22,-81C146.64,-81 155.28,-81 163.84,-81"/>
<polygon fill="midnightblue" stroke="midnightblue" points="138.06,-77.5 128.06,-81 138.06,-84.5 138.06,-77.5"/>
</g>
<!-- Node4 -->
<g id="node4" class="node">
<title>Node4</title>
<g id="a_node4"><a xlink:href="classPDFxTMD_1_1TZeroExtrapolator.html" target="_top" xlink:title=" ">
<polygon fill="none" stroke="black" points="567,-126 567,-156 726,-156 726,-126 567,-126"/>
<text text-anchor="start" x="575" y="-144" font-family="Helvetica,sans-Serif" font-size="10.00">PDFxTMD::TZeroExtrapolator</text>
<text text-anchor="middle" x="646.5" y="-133" font-family="Helvetica,sans-Serif" font-size="10.00">&lt; Reader &gt;</text>
</a>
</g>
</g>
<!-- Node3&#45;&gt;Node4 -->
<g id="edge3" class="edge">
<title>Node3&#45;&gt;Node4</title>
<path fill="none" stroke="midnightblue" d="M541.47,-141C549.9,-141 558.39,-141 566.7,-141"/>
<polygon fill="midnightblue" stroke="midnightblue" points="541.23,-137.5 531.23,-141 541.23,-144.5 541.23,-137.5"/>
</g>
<!-- Node6 -->
<g id="node6" class="node">
<title>Node6</title>
<g id="a_node6"><a xlink:href="classPDFxTMD_1_1TErrExtrapolator.html" target="_top" xlink:title=" ">
<polygon fill="none" stroke="black" points="571.5,-66 571.5,-96 721.5,-96 721.5,-66 571.5,-66"/>
<text text-anchor="start" x="579.5" y="-84" font-family="Helvetica,sans-Serif" font-size="10.00">PDFxTMD::TErrExtrapolator</text>
<text text-anchor="middle" x="646.5" y="-73" font-family="Helvetica,sans-Serif" font-size="10.00">&lt; Reader &gt;</text>
</a>
</g>
</g>
<!-- Node5&#45;&gt;Node6 -->
<g id="edge5" class="edge">
<title>Node5&#45;&gt;Node6</title>
<path fill="none" stroke="midnightblue" d="M538.23,-81C549.27,-81 560.48,-81 571.3,-81"/>
<polygon fill="midnightblue" stroke="midnightblue" points="538.15,-77.5 528.15,-81 538.15,-84.5 538.15,-77.5"/>
</g>
<!-- Node8 -->
<g id="node8" class="node">
<title>Node8</title>
<g id="a_node8"><a xlink:href="classPDFxTMD_1_1CErrExtrapolator.html" target="_top" xlink:title=" ">
<polygon fill="none" stroke="black" points="571,-6 571,-36 722,-36 722,-6 571,-6"/>
<text text-anchor="start" x="579" y="-24" font-family="Helvetica,sans-Serif" font-size="10.00">PDFxTMD::CErrExtrapolator</text>
<text text-anchor="middle" x="646.5" y="-13" font-family="Helvetica,sans-Serif" font-size="10.00">&lt; Reader &gt;</text>
</a>
</g>
</g>
<!-- Node7&#45;&gt;Node8 -->
<g id="edge7" class="edge">
<title>Node7&#45;&gt;Node8</title>
<path fill="none" stroke="midnightblue" d="M539.32,-21C549.86,-21 560.54,-21 570.86,-21"/>
<polygon fill="midnightblue" stroke="midnightblue" points="539.27,-17.5 529.27,-21 539.27,-24.5 539.27,-17.5"/>
</g>
</g>
</svg>
