<?xml version="1.0" encoding="UTF-8" standalone="no"?>
<!DOCTYPE svg PUBLIC "-//W3C//DTD SVG 1.1//EN"
 "http://www.w3.org/Graphics/SVG/1.1/DTD/svg11.dtd">
<!-- Generated by graphviz version 2.43.0 (0)
 -->
<!-- Title: PDFxTMD::IAdvancedExtrapolator&lt; Derived, Reader, Interpolator, ExtrapolateArgs &gt; Pages: 1 -->
<svg width="1037pt" height="132pt"
 viewBox="0.00 0.00 1037.00 132.00" xmlns="http://www.w3.org/2000/svg" xmlns:xlink="http://www.w3.org/1999/xlink">
<g id="graph0" class="graph" transform="scale(1 1) rotate(0) translate(4 128)">
<title>PDFxTMD::IAdvancedExtrapolator&lt; Derived, Reader, Interpolator, ExtrapolateArgs &gt;</title>
<!-- Node1 -->
<g id="node1" class="node">
<title>Node1</title>
<g id="a_node1"><a xlink:title=" ">
<polygon fill="#bfbfbf" stroke="black" points="369,-41 369,-82 551,-82 551,-41 369,-41"/>
<text text-anchor="start" x="377" y="-70" font-family="Helvetica,sans-Serif" font-size="10.00">PDFxTMD::IAdvancedExtrapolator</text>
<text text-anchor="start" x="377" y="-59" font-family="Helvetica,sans-Serif" font-size="10.00">&lt; Derived, Reader, Interpolator,</text>
<text text-anchor="middle" x="460" y="-48" font-family="Helvetica,sans-Serif" font-size="10.00"> ExtrapolateArgs &gt;</text>
</a>
</g>
</g>
<!-- Node4 -->
<g id="node4" class="node">
<title>Node4</title>
<g id="a_node4"><a xlink:href="classPDFxTMD_1_1IcAdvancedPDFExtrapolator.html" target="_top" xlink:title=" ">
<polygon fill="none" stroke="black" points="587,-71.5 587,-123.5 793,-123.5 793,-71.5 587,-71.5"/>
<text text-anchor="start" x="595" y="-111.5" font-family="Helvetica,sans-Serif" font-size="10.00">PDFxTMD::IcAdvancedPDFExtrapolator</text>
<text text-anchor="start" x="595" y="-100.5" font-family="Helvetica,sans-Serif" font-size="10.00">&lt; CContinuationExtrapolator</text>
<text text-anchor="start" x="595" y="-89.5" font-family="Helvetica,sans-Serif" font-size="10.00">&lt; Reader, Interpolator &gt;, Reader,</text>
<text text-anchor="middle" x="690" y="-78.5" font-family="Helvetica,sans-Serif" font-size="10.00"> Interpolator &gt;</text>
</a>
</g>
</g>
<!-- Node1&#45;&gt;Node4 -->
<g id="edge3" class="edge">
<title>Node1&#45;&gt;Node4</title>
<path fill="none" stroke="midnightblue" d="M561.06,-77.3C569.58,-78.64 578.21,-80.01 586.74,-81.35"/>
<polygon fill="midnightblue" stroke="midnightblue" points="561.54,-73.83 551.11,-75.73 560.44,-80.75 561.54,-73.83"/>
</g>
<!-- Node6 -->
<g id="node6" class="node">
<title>Node6</title>
<g id="a_node6"><a xlink:href="classPDFxTMD_1_1IcAdvancedPDFExtrapolator.html" target="_top" xlink:title=" ">
<polygon fill="none" stroke="black" points="587,-0.5 587,-52.5 793,-52.5 793,-0.5 587,-0.5"/>
<text text-anchor="start" x="595" y="-40.5" font-family="Helvetica,sans-Serif" font-size="10.00">PDFxTMD::IcAdvancedPDFExtrapolator</text>
<text text-anchor="start" x="595" y="-29.5" font-family="Helvetica,sans-Serif" font-size="10.00">&lt; CNearestPointExtrapolator</text>
<text text-anchor="start" x="595" y="-18.5" font-family="Helvetica,sans-Serif" font-size="10.00">&lt; Reader, Interpolator &gt;, Reader,</text>
<text text-anchor="middle" x="690" y="-7.5" font-family="Helvetica,sans-Serif" font-size="10.00"> Interpolator &gt;</text>
</a>
</g>
</g>
<!-- Node1&#45;&gt;Node6 -->
<g id="edge5" class="edge">
<title>Node1&#45;&gt;Node6</title>
<path fill="none" stroke="midnightblue" d="M561.06,-46.14C569.58,-44.83 578.21,-43.51 586.74,-42.2"/>
<polygon fill="midnightblue" stroke="midnightblue" points="560.46,-42.69 551.11,-47.67 561.53,-49.61 560.46,-42.69"/>
</g>
<!-- Node2 -->
<g id="node2" class="node">
<title>Node2</title>
<g id="a_node2"><a xlink:href="classPDFxTMD_1_1IExtrapolator.html" target="_top" xlink:title=" ">
<polygon fill="none" stroke="black" points="164,-41 164,-82 333,-82 333,-41 164,-41"/>
<text text-anchor="start" x="172" y="-70" font-family="Helvetica,sans-Serif" font-size="10.00">PDFxTMD::IExtrapolator</text>
<text text-anchor="start" x="172" y="-59" font-family="Helvetica,sans-Serif" font-size="10.00">&lt; Derived, Reader, Extrapolate</text>
<text text-anchor="middle" x="248.5" y="-48" font-family="Helvetica,sans-Serif" font-size="10.00">Args... &gt;</text>
</a>
</g>
</g>
<!-- Node2&#45;&gt;Node1 -->
<g id="edge1" class="edge">
<title>Node2&#45;&gt;Node1</title>
<path fill="none" stroke="midnightblue" d="M343.46,-61.5C351.92,-61.5 360.48,-61.5 368.9,-61.5"/>
<polygon fill="midnightblue" stroke="midnightblue" points="343.2,-58 333.2,-61.5 343.2,-65 343.2,-58"/>
</g>
<!-- Node3 -->
<g id="node3" class="node">
<title>Node3</title>
<g id="a_node3"><a xlink:href="classPDFxTMD_1_1CRTPBase.html" target="_top" xlink:title=" ">
<polygon fill="none" stroke="black" points="0,-46.5 0,-76.5 128,-76.5 128,-46.5 0,-46.5"/>
<text text-anchor="start" x="8" y="-64.5" font-family="Helvetica,sans-Serif" font-size="10.00">PDFxTMD::CRTPBase&lt;</text>
<text text-anchor="middle" x="64" y="-53.5" font-family="Helvetica,sans-Serif" font-size="10.00"> Derived &gt;</text>
</a>
</g>
</g>
<!-- Node3&#45;&gt;Node2 -->
<g id="edge2" class="edge">
<title>Node3&#45;&gt;Node2</title>
<path fill="none" stroke="midnightblue" d="M138.22,-61.5C146.64,-61.5 155.28,-61.5 163.84,-61.5"/>
<polygon fill="midnightblue" stroke="midnightblue" points="138.06,-58 128.06,-61.5 138.06,-65 138.06,-58"/>
</g>
<!-- Node5 -->
<g id="node5" class="node">
<title>Node5</title>
<g id="a_node5"><a xlink:href="classPDFxTMD_1_1CContinuationExtrapolator.html" target="_top" xlink:title=" ">
<polygon fill="none" stroke="black" points="829,-82.5 829,-112.5 1029,-112.5 1029,-82.5 829,-82.5"/>
<text text-anchor="start" x="837" y="-100.5" font-family="Helvetica,sans-Serif" font-size="10.00">PDFxTMD::CContinuationExtrapolator</text>
<text text-anchor="middle" x="929" y="-89.5" font-family="Helvetica,sans-Serif" font-size="10.00">&lt; Reader, Interpolator &gt;</text>
</a>
</g>
</g>
<!-- Node4&#45;&gt;Node5 -->
<g id="edge4" class="edge">
<title>Node4&#45;&gt;Node5</title>
<path fill="none" stroke="midnightblue" d="M803.48,-97.5C811.92,-97.5 820.39,-97.5 828.74,-97.5"/>
<polygon fill="midnightblue" stroke="midnightblue" points="803.23,-94 793.23,-97.5 803.23,-101 803.23,-94"/>
</g>
<!-- Node7 -->
<g id="node7" class="node">
<title>Node7</title>
<g id="a_node7"><a xlink:href="classPDFxTMD_1_1CNearestPointExtrapolator.html" target="_top" xlink:title=" ">
<polygon fill="none" stroke="black" points="829,-11.5 829,-41.5 1029,-41.5 1029,-11.5 829,-11.5"/>
<text text-anchor="start" x="837" y="-29.5" font-family="Helvetica,sans-Serif" font-size="10.00">PDFxTMD::CNearestPointExtrapolator</text>
<text text-anchor="middle" x="929" y="-18.5" font-family="Helvetica,sans-Serif" font-size="10.00">&lt; Reader, Interpolator &gt;</text>
</a>
</g>
</g>
<!-- Node6&#45;&gt;Node7 -->
<g id="edge6" class="edge">
<title>Node6&#45;&gt;Node7</title>
<path fill="none" stroke="midnightblue" d="M803.48,-26.5C811.92,-26.5 820.39,-26.5 828.74,-26.5"/>
<polygon fill="midnightblue" stroke="midnightblue" points="803.23,-23 793.23,-26.5 803.23,-30 803.23,-23"/>
</g>
</g>
</svg>
